<?xml version="1.0" encoding="UTF-8"?>
<svg xmlns="http://www.w3.org/2000/svg" xmlns:xlink="http://www.w3.org/1999/xlink" width="50px" height="px" viewBox="0 0 50 50" version="1.1">
<g id="surface1">
<path style=" stroke:none;fill-rule:nonzero;fill:rgb(90.588236%,23.137255%,21.568628%);fill-opacity:1;" d="M 24.511719 14.707031 C 24.511719 14.976562 24.730469 15.195312 25 15.195312 C 25.269531 15.195312 25.488281 14.976562 25.488281 14.707031 C 25.488281 14.4375 25.269531 14.21875 25 14.21875 C 24.730469 14.21875 24.511719 14.4375 24.511719 14.707031 Z M 24.511719 14.707031 "/>
<path style=" stroke:none;fill-rule:nonzero;fill:rgb(22.352941%,22.352941%,22.745098%);fill-opacity:1;" d="M 19.546875 36.351562 C 19.648438 36.320312 19.746094 36.285156 19.847656 36.253906 C 19.75 36.285156 19.648438 36.320312 19.546875 36.351562 Z M 19.546875 36.351562 C 19.648438 36.320312 19.746094 36.285156 19.847656 36.253906 C 19.75 36.285156 19.648438 36.320312 19.546875 36.351562 Z M 19.546875 36.351562 "/>
<path style=" stroke:none;fill-rule:nonzero;fill:rgb(90.588236%,23.137255%,21.568628%);fill-opacity:1;" d="M 24.992188 12.53125 C 26.183594 12.53125 27.148438 13.496094 27.148438 14.6875 C 27.148438 15.878906 26.183594 16.84375 24.992188 16.84375 C 23.796875 16.84375 22.832031 15.878906 22.832031 14.6875 C 22.832031 13.496094 23.804688 12.53125 24.992188 12.53125 M 24.992188 11.554688 C 23.257812 11.554688 21.855469 12.953125 21.855469 14.6875 C 21.855469 16.421875 23.257812 17.820312 24.992188 17.820312 C 26.722656 17.820312 28.125 16.421875 28.125 14.6875 C 28.125 12.953125 26.722656 11.554688 24.992188 11.554688 Z M 24.992188 11.554688 "/>
<path style=" stroke:none;fill-rule:nonzero;fill:rgb(22.352941%,22.352941%,22.745098%);fill-opacity:1;" d="M 35.679688 25.855469 C 35.699219 25.429688 35.707031 25.003906 35.707031 24.574219 C 35.707031 15.804688 31.503906 8.015625 25 3.117188 C 18.5 8.015625 14.296875 15.804688 14.296875 24.574219 C 14.296875 25.003906 14.304688 25.429688 14.328125 25.851562 C 11.59375 28.585938 9.902344 32.359375 9.902344 36.527344 C 9.902344 39.539062 10.78125 42.34375 12.300781 44.695312 C 13.78125 42.265625 15.949219 40.296875 18.535156 39.066406 C 20.4375 38.160156 22.574219 37.652344 24.824219 37.652344 C 27.183594 37.652344 29.410156 38.207031 31.382812 39.199219 C 33.945312 40.484375 36.085938 42.503906 37.515625 44.980469 C 39.144531 42.570312 40.097656 39.664062 40.097656 36.527344 C 40.097656 32.359375 38.40625 28.589844 35.679688 25.855469 Z M 17.144531 18.71875 C 17.59375 16.871094 18.261719 15.074219 19.125 13.375 C 19.976562 11.699219 21.019531 10.128906 22.230469 8.691406 C 23.082031 7.683594 24.007812 6.742188 25.003906 5.882812 C 26 6.742188 26.929688 7.683594 27.777344 8.691406 C 28.988281 10.132812 30.035156 11.707031 30.882812 13.375 C 31.75 15.074219 32.417969 16.871094 32.867188 18.71875 C 33.289062 20.46875 33.523438 22.269531 33.558594 24.085938 C 31.125 22.414062 28.171875 21.429688 25 21.429688 C 21.828125 21.429688 18.882812 22.414062 16.449219 24.085938 C 16.484375 22.269531 16.71875 20.46875 17.144531 18.71875 Z M 12.71875 40.652344 C 12.273438 39.335938 12.050781 37.945312 12.050781 36.53125 C 12.050781 34.785156 12.390625 33.085938 13.066406 31.492188 C 13.476562 30.527344 13.996094 29.617188 14.625 28.785156 C 15.097656 31.785156 16.0625 34.628906 17.445312 37.210938 C 15.667969 38.082031 14.078125 39.242188 12.71875 40.652344 Z M 30.503906 36.488281 C 30.46875 36.476562 30.429688 36.464844 30.394531 36.449219 C 30.375 36.441406 30.351562 36.4375 30.332031 36.425781 C 30.304688 36.414062 30.269531 36.402344 30.238281 36.390625 C 30.199219 36.375 30.167969 36.367188 30.128906 36.351562 C 30.089844 36.335938 30.054688 36.328125 30.015625 36.320312 L 29.972656 36.304688 C 29.921875 36.289062 29.867188 36.269531 29.820312 36.253906 C 29.761719 36.234375 29.703125 36.21875 29.648438 36.203125 L 29.503906 36.15625 C 29.492188 36.152344 29.484375 36.152344 29.46875 36.148438 C 29.414062 36.132812 29.355469 36.113281 29.300781 36.097656 C 29.242188 36.085938 29.183594 36.070312 29.132812 36.054688 L 28.78125 35.96875 C 28.730469 35.953125 28.675781 35.941406 28.628906 35.933594 C 28.570312 35.917969 28.511719 35.90625 28.453125 35.894531 C 28.390625 35.878906 28.332031 35.863281 28.265625 35.855469 L 28.253906 35.855469 C 28.207031 35.84375 28.160156 35.835938 28.117188 35.824219 C 28.097656 35.820312 28.082031 35.820312 28.0625 35.816406 C 28.007812 35.804688 27.953125 35.796875 27.894531 35.785156 C 27.835938 35.777344 27.777344 35.765625 27.71875 35.75 L 27.457031 35.707031 C 27.414062 35.703125 27.363281 35.695312 27.320312 35.6875 C 27.28125 35.683594 27.242188 35.671875 27.199219 35.667969 C 27.070312 35.648438 26.949219 35.632812 26.820312 35.621094 C 26.761719 35.617188 26.710938 35.605469 26.652344 35.601562 L 26.632812 35.601562 C 26.585938 35.59375 26.542969 35.589844 26.496094 35.585938 C 26.441406 35.582031 26.390625 35.578125 26.339844 35.570312 C 26.253906 35.5625 26.171875 35.558594 26.089844 35.550781 C 26.050781 35.546875 26.015625 35.546875 25.976562 35.542969 C 25.933594 35.539062 25.882812 35.539062 25.839844 35.53125 C 25.820312 35.53125 25.800781 35.53125 25.78125 35.527344 C 25.726562 35.523438 25.679688 35.523438 25.625 35.515625 C 25.601562 35.515625 25.578125 35.511719 25.550781 35.511719 C 25.488281 35.507812 25.425781 35.507812 25.363281 35.507812 C 25.324219 35.507812 25.289062 35.503906 25.25 35.503906 C 25.191406 35.503906 25.132812 35.503906 25.078125 35.496094 L 24.398438 35.496094 C 24.289062 35.496094 24.175781 35.503906 24.0625 35.507812 C 24.019531 35.507812 23.96875 35.511719 23.925781 35.511719 C 23.886719 35.511719 23.851562 35.515625 23.8125 35.515625 C 23.746094 35.523438 23.675781 35.527344 23.613281 35.53125 C 23.546875 35.539062 23.480469 35.542969 23.414062 35.546875 C 23.34375 35.550781 23.28125 35.554688 23.214844 35.566406 C 23.183594 35.566406 23.15625 35.570312 23.125 35.574219 L 22.746094 35.621094 C 22.691406 35.625 22.640625 35.632812 22.589844 35.640625 C 22.539062 35.644531 22.484375 35.652344 22.4375 35.660156 C 22.28125 35.683594 22.125 35.703125 21.972656 35.730469 C 21.9375 35.738281 21.90625 35.742188 21.871094 35.75 C 21.828125 35.757812 21.789062 35.765625 21.742188 35.777344 C 21.691406 35.785156 21.632812 35.796875 21.578125 35.804688 C 21.535156 35.816406 21.496094 35.820312 21.449219 35.828125 C 21.429688 35.835938 21.410156 35.835938 21.398438 35.839844 C 21.363281 35.84375 21.328125 35.855469 21.292969 35.859375 C 21.234375 35.875 21.175781 35.882812 21.117188 35.898438 C 21.058594 35.914062 21 35.921875 20.941406 35.9375 C 20.933594 35.9375 20.921875 35.941406 20.914062 35.941406 C 20.890625 35.945312 20.863281 35.953125 20.839844 35.960938 C 20.785156 35.976562 20.726562 35.992188 20.667969 36.003906 C 20.605469 36.019531 20.546875 36.035156 20.484375 36.054688 C 20.464844 36.058594 20.4375 36.0625 20.414062 36.074219 C 20.351562 36.09375 20.28125 36.109375 20.21875 36.128906 C 20.148438 36.148438 20.074219 36.171875 19.996094 36.191406 C 19.945312 36.207031 19.890625 36.21875 19.84375 36.238281 C 19.742188 36.269531 19.644531 36.304688 19.539062 36.335938 C 19.507812 36.347656 19.472656 36.363281 19.4375 36.371094 C 18.707031 35.027344 18.101562 33.617188 17.632812 32.164062 C 17.0625 30.398438 16.695312 28.570312 16.53125 26.714844 C 16.503906 26.386719 16.484375 26.0625 16.46875 25.738281 C 16.464844 25.679688 16.464844 25.621094 16.464844 25.5625 C 16.460938 25.503906 16.460938 25.445312 16.460938 25.386719 C 16.460938 25.328125 16.453125 25.269531 16.453125 25.210938 C 16.453125 25.152344 16.449219 25.09375 16.449219 25.027344 C 17.367188 24.34375 18.363281 23.769531 19.429688 23.320312 C 21.191406 22.574219 23.066406 22.195312 25 22.195312 C 26.933594 22.195312 28.808594 22.578125 30.570312 23.320312 C 31.636719 23.769531 32.632812 24.339844 33.550781 25.027344 L 33.550781 25.035156 C 33.550781 25.082031 33.550781 25.125 33.542969 25.175781 C 33.542969 25.242188 33.539062 25.3125 33.539062 25.386719 C 33.539062 25.417969 33.539062 25.449219 33.535156 25.484375 C 33.53125 25.570312 33.53125 25.652344 33.523438 25.742188 C 33.511719 26.070312 33.484375 26.390625 33.460938 26.71875 C 33.300781 28.597656 32.925781 30.453125 32.339844 32.234375 C 31.863281 33.714844 31.25 35.136719 30.503906 36.488281 Z M 37.183594 40.929688 C 35.839844 39.464844 34.246094 38.257812 32.480469 37.351562 C 33.902344 34.730469 34.898438 31.84375 35.382812 28.785156 C 36.007812 29.617188 36.523438 30.523438 36.933594 31.492188 C 37.609375 33.089844 37.949219 34.785156 37.949219 36.53125 C 37.949219 38.046875 37.691406 39.527344 37.183594 40.929688 Z M 37.183594 40.929688 "/>
<path style=" stroke:none;fill-rule:nonzero;fill:rgb(90.588236%,23.137255%,21.568628%);fill-opacity:1;" d="M 25 40.003906 C 25.425781 40.003906 26.207031 41.125 26.207031 42.953125 C 26.207031 44.785156 25.425781 45.902344 25 45.902344 C 24.574219 45.902344 23.792969 44.785156 23.792969 42.953125 C 23.792969 41.125 24.574219 40.003906 25 40.003906 M 25 39.027344 C 23.792969 39.027344 22.816406 40.785156 22.816406 42.953125 C 22.816406 45.121094 23.792969 46.878906 25 46.878906 C 26.207031 46.878906 27.183594 45.121094 27.183594 42.953125 C 27.183594 40.785156 26.207031 39.027344 25 39.027344 Z M 25 39.027344 "/>
</g>
</svg>
