<svg xmlns="http://www.w3.org/2000/svg" width="50" height="px" viewBox="0 0 50 50"><path d="M24.512 14.707a.488.488 0 10.977 0 .488.488 0 00-.977 0zm0 0" fill="#e73b37"/><path d="M19.547 36.352c.101-.032.2-.067.3-.098l-.3.098zm0 0c.101-.032.2-.067.3-.098l-.3.098zm0 0" fill="#39393a"/><path d="M24.992 12.531a2.156 2.156 0 110 4.313 2.156 2.156 0 110-4.313m0-.976a3.13 3.13 0 00-3.137 3.133 3.13 3.13 0 003.137 3.132 3.13 3.13 0 003.133-3.133 3.13 3.13 0 00-3.133-3.132zm0 0" fill="#e73b37"/><path d="M35.68 25.855c.02-.425.027-.851.027-1.28 0-8.77-4.203-16.56-10.707-21.458-6.5 4.899-10.703 12.688-10.703 21.457 0 .43.008.856.031 1.278a15.05 15.05 0 00-4.426 10.675 15 15 0 002.399 8.168 14.725 14.725 0 016.234-5.629 14.597 14.597 0 016.29-1.414c2.359 0 4.585.555 6.558 1.547a14.711 14.711 0 016.133 5.781 15.038 15.038 0 002.582-8.453 15.07 15.07 0 00-4.418-10.672zM17.145 18.72a24.696 24.696 0 011.98-5.344 24.494 24.494 0 013.105-4.684 25.11 25.11 0 012.774-2.808 24.78 24.78 0 015.879 7.492 24.505 24.505 0 011.984 5.344c.422 1.75.656 3.55.692 5.367A15.08 15.08 0 0025 21.43a15.05 15.05 0 00-8.55 2.656c.034-1.816.269-3.617.695-5.367zm-4.426 21.933a12.848 12.848 0 01-.668-4.12 12.848 12.848 0 012.574-7.747c.473 3 1.438 5.844 2.82 8.426a16.84 16.84 0 00-4.726 3.441zm17.785-4.164c-.035-.011-.074-.023-.11-.039-.019-.008-.042-.011-.062-.023-.027-.012-.062-.024-.094-.035-.039-.016-.07-.024-.11-.04a.613.613 0 00-.112-.03l-.043-.016-.153-.051c-.058-.02-.117-.035-.172-.05l-.144-.048c-.012-.004-.02-.004-.035-.008-.055-.015-.114-.035-.168-.05a1.751 1.751 0 01-.168-.043l-.352-.086a1.21 1.21 0 00-.152-.035 2.835 2.835 0 00-.176-.04c-.062-.015-.121-.03-.187-.039h-.012l-.137-.03c-.02-.005-.035-.005-.055-.009-.054-.011-.109-.02-.167-.03a1.4 1.4 0 01-.176-.036l-.262-.043a1.645 1.645 0 01-.137-.02c-.039-.003-.078-.015-.12-.019a6.268 6.268 0 00-.38-.047c-.058-.004-.11-.016-.168-.02h-.02a1.627 1.627 0 00-.136-.015 1.923 1.923 0 01-.156-.016c-.086-.008-.168-.011-.25-.02-.04-.003-.074-.003-.113-.007-.043-.004-.094-.004-.137-.012-.02 0-.04 0-.059-.004-.054-.004-.101-.004-.156-.011-.023 0-.047-.004-.074-.004-.063-.004-.125-.004-.188-.004-.039 0-.074-.004-.113-.004-.059 0-.117 0-.172-.008h-.68c-.109 0-.222.008-.335.012-.043 0-.094.004-.137.004-.04 0-.074.004-.113.004-.067.007-.137.011-.2.015a3.419 3.419 0 01-.199.016c-.07.004-.133.008-.2.02a.68.68 0 00-.089.007l-.379.047a1.895 1.895 0 00-.156.02 1.8 1.8 0 00-.152.02c-.157.023-.313.042-.465.07-.035.007-.067.011-.102.019a1.921 1.921 0 00-.129.027c-.05.008-.11.02-.164.028-.043.011-.082.015-.129.023-.02.008-.039.008-.05.012-.036.004-.07.015-.106.02-.059.015-.117.023-.176.038-.058.016-.117.024-.176.04l-.027.003a.52.52 0 00-.074.02 2.21 2.21 0 01-.172.043 3.213 3.213 0 00-.184.05c-.02.005-.047.008-.07.02-.062.02-.133.035-.195.055-.07.02-.145.043-.223.062-.05.016-.105.028-.152.047-.102.032-.2.067-.305.098-.031.012-.066.027-.102.035a24.68 24.68 0 01-2.906-9.656 27.89 27.89 0 01-.062-.977c-.004-.058-.004-.117-.004-.175-.004-.06-.004-.118-.004-.176 0-.059-.008-.117-.008-.176 0-.059-.004-.117-.004-.184a14.24 14.24 0 012.98-1.707A14.208 14.208 0 0125 22.195a14.278 14.278 0 018.55 2.832v.008c0 .047 0 .09-.007.14 0 .067-.004.137-.004.212 0 .031 0 .062-.004.097-.004.086-.004.168-.012.258-.011.328-.039.649-.062.977a24.262 24.262 0 01-1.121 5.515 24.023 24.023 0 01-1.836 4.254zm6.68 4.442a16.761 16.761 0 00-4.704-3.578 26.709 26.709 0 002.903-8.567c.625.832 1.14 1.738 1.55 2.707a12.862 12.862 0 011.016 5.04c0 1.515-.258 2.995-.765 4.398zm0 0" fill="#39393a"/><path d="M25 40.004c.426 0 1.207 1.121 1.207 2.95 0 1.831-.781 2.948-1.207 2.948-.426 0-1.207-1.117-1.207-2.949 0-1.828.781-2.95 1.207-2.95m0-.976c-1.207 0-2.184 1.758-2.184 3.926S23.793 46.88 25 46.88c1.207 0 2.184-1.758 2.184-3.926s-.977-3.926-2.184-3.926zm0 0" fill="#e73b37"/></svg>