<svg xmlns="http://www.w3.org/2000/svg" width="50" height="px" viewBox="0 0 50 50"><path d="M29.672 3.133c-5.024 0-9.094 4.074-9.094 9.097 0 1.465.774 3.254 1.867 5.043.742 1.211 1.63 2.43 2.524 3.547a61.589 61.589 0 004.703 5.203s.867-.832 2.066-2.136c.684-.746 1.48-1.64 2.282-2.63 2.34-2.862 4.75-6.445 4.75-9.027a9.099 9.099 0 00-9.098-9.097zm3.8 17.25c-.39.484-.785.953-1.167 1.394-.38.442-.75.856-1.098 1.235a81.79 81.79 0 01-1.535 1.629 62.28 62.28 0 01-2.625-2.86 41.199 41.199 0 01-1.164-1.39 42.703 42.703 0 01-1.762-2.344 24.35 24.35 0 01-1.273-2.027c-.86-1.543-1.301-2.82-1.301-3.797a8.08 8.08 0 012.379-5.743 8.067 8.067 0 015.742-2.378c2.168 0 4.207.843 5.742 2.378a8.06 8.06 0 012.38 5.743c0 .976-.435 2.25-1.294 3.789-.723 1.312-1.738 2.777-3.023 4.37zm0 0" fill="#e73b37"/><path d="M29.672 8.941a3.277 3.277 0 013.273 3.27 3.278 3.278 0 01-3.273 3.273c-1.8 0-3.27-1.468-3.27-3.273 0-1.8 1.465-3.27 3.27-3.27m0-.976a4.249 4.249 0 10.005 8.495 4.249 4.249 0 00-.005-8.495zm0 0" fill="#e73b37"/><path d="M45.309 17.207l-9.559 3.434-1.734.625a64.486 64.486 0 01-2.282 2.625l.09.047v20.34l-.617-.29-2.262-1.054-10.36-4.829-.42-.195V17.648l6.804 3.172c-.899-1.125-1.782-2.336-2.524-3.547l-3.789-1.765-.18-.082-.421-.196-.38-.183-.105.039-14.445 5.191V45.27l14.55-5.23 11.27 5.253 2.262 1.055 1.105.52 14.563-5.231V16.645zM17.188 37.934l-.239.09-11.676 4.195v-20.43l11.915-4.285zm27.539 2.191L32.805 44.41V23.98l.246-.09 11.676-4.195zm0 0" fill="#39393a"/></svg>