<svg xmlns="http://www.w3.org/2000/svg" width="50" height="px" viewBox="0 0 50 50"><path d="M24.996 9.746c-7.629 0-13.816 6.184-13.816 13.813 0 5.07 2.73 9.503 6.804 11.906v4.383a6.294 6.294 0 00.035.656c.333 3.555 3.348 6.363 6.985 6.363 1.93 0 3.683-.793 4.957-2.062a7.014 7.014 0 002.031-4.293c.016-.157.024-.313.031-.469 0-.063.004-.133.004-.195v-4.395l.028-.016c4.047-2.406 6.765-6.824 6.765-11.878-.011-7.63-6.195-13.813-13.824-13.813zM19.136 37.5h.063zm10.731 2.348a4.689 4.689 0 01-.332 1.754 4.894 4.894 0 01-1.101 1.683 4.823 4.823 0 01-3.438 1.434 4.823 4.823 0 01-3.437-1.434 4.951 4.951 0 01-1.11-1.687 4.706 4.706 0 01-.32-1.75v-.43h9.734v.43zm0-1.211h-9.734v-2.328h9.734zm3.375-6.828a11.664 11.664 0 01-3.344 2.336l-.03.015v.004h-9.735a11.583 11.583 0 01-2.121-1.258 11.92 11.92 0 01-1.262-1.097 11.607 11.607 0 01-2.5-3.707 11.502 11.502 0 01-.918-4.543c0-1.575.305-3.098.918-4.54a11.688 11.688 0 012.5-3.71 11.538 11.538 0 013.71-2.5 11.604 11.604 0 014.54-.914 11.605 11.605 0 018.25 3.414 11.518 11.518 0 012.5 3.71c.61 1.434.922 2.965.922 4.54a11.52 11.52 0 01-.922 4.543 11.759 11.759 0 01-2.508 3.707zm0 0" fill="#39393a"/><path d="M24.996 21.11a3.518 3.518 0 00-3.516 3.515 3.525 3.525 0 003.172 3.5v6.04h.684v-6.04a3.523 3.523 0 003.176-3.5 3.52 3.52 0 00-3.516-3.516zm0 6.25a2.735 2.735 0 11.001-5.47 2.735 2.735 0 010 5.47zM23.078 5.059a1.921 1.921 0 103.844 0 1.921 1.921 0 10-3.844 0zM10 10.473a1.924 1.924 0 103.848.004A1.924 1.924 0 0010 10.473zM4.586 23.547a1.924 1.924 0 103.848-.004 1.924 1.924 0 00-3.848.004zm36.98 0a1.924 1.924 0 103.848-.004 1.924 1.924 0 00-3.848.004zm-5.414-13.074a1.925 1.925 0 103.85.002 1.925 1.925 0 00-3.85-.002zm0 0" fill="#e73b37"/></svg>