<svg xmlns="http://www.w3.org/2000/svg" width="50" height="px" viewBox="0 0 50 50"><path d="M41.215 10.32c-.176-.195-.356-.383-.535-.57a21.885 21.885 0 00-11.934-6.309A22.412 22.412 0 0025 3.125 21.793 21.793 0 009.312 9.758 21.801 21.801 0 003.125 25a21.822 21.822 0 006.18 15.238 21.922 21.922 0 009.7 5.809 22.74 22.74 0 002.254.512 22.33 22.33 0 007.488 0A22.47 22.47 0 0031 46.047a21.844 21.844 0 009.695-5.805A21.832 21.832 0 0046.875 25a21.8 21.8 0 00-5.66-14.68zm3.508 15.082a19.592 19.592 0 01-5.016 12.746 19.32 19.32 0 01-.531.575c-.074.078-.153.148-.227.226a19.611 19.611 0 01-6.27 4.23 19.55 19.55 0 01-7.288 1.544c-.13.004-.258.004-.391.004s-.258 0-.39-.004a19.585 19.585 0 01-7.29-1.543 19.632 19.632 0 01-6.27-4.23l-.23-.235a19.574 19.574 0 01-4-6.035 19.592 19.592 0 01-1.543-7.278h5.336c0-.132-.004-.265-.004-.402 0-.125 0-.254.004-.379H5.277a19.618 19.618 0 015.559-13.34 19.58 19.58 0 016.488-4.453 19.416 19.416 0 015.45-1.426c.609-.07 1.218-.109 1.84-.125.132-.004.261-.004.39-.004a19.141 19.141 0 012.23.129 19.39 19.39 0 015.446 1.426 19.537 19.537 0 016.484 4.445c.18.188.363.38.531.575a19.627 19.627 0 013.485 5.476 19.614 19.614 0 011.543 7.297h-5.34c0 .125.008.254.008.379 0 .133 0 .266-.008.402zm0 0" fill="#39393a"/><path d="M38.61 25c0 .133 0 .266-.008.402H25.39v7.063c-.133-.004-.266-.004-.395-.004s-.262 0-.387.004v-7.063H11.4c-.008-.132-.008-.265-.008-.402 0-.125 0-.254.007-.383H24.61V17.52l.387.003c.129 0 .262 0 .395-.003v7.101H38.6c0 .125.008.254.008.379zM25.39 5.426v11.308c-.132.004-.265.004-.394.004s-.262 0-.387-.004V5.426c.133-.055.258-.106.391-.153.133.047.258.102.39.153zm-.39 39.3zm.39-11.48v11.328a8.052 8.052 0 01-.39.153c-.133-.047-.258-.102-.39-.153V33.246c.124-.004.257-.004.386-.004s.262 0 .395.004zm0 0" fill="#39393a"/><path d="M25 44.727zm0 0zm11.559-8.961a21.71 21.71 0 002.82-10.364c0-.132.004-.265.004-.402 0-.125 0-.254-.004-.383a21.698 21.698 0 00-2.832-10.394 21.51 21.51 0 003.144-2.38 24.745 24.745 0 00-.53-.57 20.485 20.485 0 01-3.013 2.282 21.978 21.978 0 00-8.925-8.157 22.243 22.243 0 00-1.844-.12c-.129-.005-.258-.005-.39-.005.132.047.261.102.39.153.113.043.223.09.332.136a21.074 21.074 0 016.707 4.52 21.35 21.35 0 013.059 3.867 20.944 20.944 0 01-10.09 2.79c-.133.003-.266.003-.399.003-.125 0-.258 0-.383-.004A21.008 21.008 0 0114.5 13.953a21.229 21.229 0 013.063-3.871 21.057 21.057 0 016.703-4.52c.113-.046.222-.093.332-.136a10 10 0 01.39-.153c-.129 0-.258 0-.39.004-.618.012-1.23.055-1.84.121a21.936 21.936 0 00-8.926 8.16 20.485 20.485 0 01-3.012-2.28c-.18.187-.363.382-.53.574.968.882 2.023 1.68 3.148 2.375a21.768 21.768 0 00-2.829 10.39c0 .13-.004.254-.004.383a21.803 21.803 0 002.828 10.762c-1.124.699-2.18 1.5-3.152 2.383.172.195.352.386.535.57a20.788 20.788 0 013.012-2.285 21.97 21.97 0 008.934 8.175 20.668 20.668 0 002.234.122 32.036 32.036 0 01-.39-.153c-.114-.043-.223-.094-.333-.136a21.16 21.16 0 01-9.773-8.402 21.003 21.003 0 0110.11-2.79c.124-.004.257-.004.386-.004s.262 0 .395.004c2.71.05 5.336.606 7.812 1.656.79.332 1.55.711 2.29 1.137a20.994 20.994 0 01-3.067 3.883A21.057 21.057 0 0125 44.73c.133 0 .258 0 .39-.003a20.347 20.347 0 001.84-.118 21.89 21.89 0 008.93-8.168 20.754 20.754 0 013.016 2.286c.18-.188.355-.38.531-.575a21.527 21.527 0 00-3.148-2.386zM25.39 32.465c-.133-.004-.266-.004-.395-.004s-.262 0-.387.004a21.852 21.852 0 00-10.504 2.894 21.05 21.05 0 01-1.054-2.148 20.896 20.896 0 01-1.656-7.813c-.004-.128-.004-.261-.004-.398a20.955 20.955 0 012.727-10.371 21.73 21.73 0 0010.491 2.89c.125 0 .258.004.387.004s.262 0 .395-.003a21.82 21.82 0 0010.492-2.895c.398.695.754 1.418 1.066 2.168a20.923 20.923 0 011.653 7.824c0 .13.007.254.007.383 0 .133 0 .262-.007.398a20.832 20.832 0 01-1.653 7.813c-.312.742-.664 1.46-1.062 2.156a21.73 21.73 0 00-10.496-2.902zm0 0" fill="#e73b37"/></svg>