<svg xmlns="http://www.w3.org/2000/svg" width="60" height="104"><path d="M34.904 69.379l6.826-6.822-.568-1.423-.284-1.423.568-1.708 1.42-1.982 1.998-1.708 2.84-1.708 3.418-1.708 3.976-1.423 4.27-1.138 4.543-.844 5.406-1.139 5.68-1.708 11.948-3.984 5.69-1.993 5.111-1.413 2.282-.285 2.272-.284h1.704l1.42.284-2.556-3.985h-1.136l-1.42.57-3.134 1.423L93.77 36.4l-3.134.854-5.111 1.698-13.084 4.554-5.974 1.992-2.84.57-2.556.569-4.553.854-4.544 1.128-3.702 1.423-3.408 1.708-2.85 1.993-1.988 1.708-1.42 1.982-.568 1.708.284 1.423.568 1.423-5.69 5.683zm0 0" transform="matrix(.38514 0 0 .38426 -10.435 -5.081)" fill="#eac102" stroke-width=".284" stroke="#010101"/><path d="M38.322 60.565l-.284-1.423.568-1.708 1.42-1.982 1.988-1.708 2.85-1.993 3.408-1.708 3.702-1.423 4.544-1.128 4.553-.854 2.556-.57 2.84-.569 5.974-1.992 13.084-4.554 5.111-1.698-7.961 1.982-8.246 2.277-7.962 1.993-3.692.854-3.407.854-5.122 1.138-4.838 1.413-4.544 1.993-3.986 2.277-3.408 2.562-2.85 2.836-1.704 2.846-.568 2.847.284 2.277.284 1.138.284 1.129 5.69-5.683zm0 0" transform="matrix(.38514 0 0 .38426 -10.435 -5.081)" fill="#eac102" stroke-width=".284" stroke="#010101"/><path d="M96.326 34.978l-.852.57-1.136.284-1.136-.285-.852-.57-.851-1.138-.295-1.138.295-1.139.851-.854.852-.569 1.136-.285 1.136.285.852.57.568.853.284 1.139-.284 1.138zM88.08 37.54l-1.135.843-1.136.285-1.136-.285-.852-.843-.568-.854-.294-1.139.294-1.138.568-1.139.852-.57 1.136-.284 1.136.285 1.136.854.568.854.283 1.138-.283 1.139zm-8.813 2.551l-1.136.57-1.136.284-1.136-.284-.862-.57-.568-.854-.284-1.138.284-1.129.568-1.138.862-.57 1.136-.284 1.136.285 1.136.569.568 1.138.284 1.129-.284 1.138zm-9.382 2.277l-.852.57-1.136.284-1.146-.284-.852-.57-.568-.854-.284-1.138.284-1.139.568-1.138.852-.56 1.146-.284 1.136.285.852.559.568 1.138.284 1.139-.284 1.138zm-8.814 2.277l-1.136.57-1.146.284-1.136-.284-.852-.57-.567-1.138-.284-1.139.284-1.138.567-.854.852-.854h1.136l1.146.285 1.136.569.568.854.284 1.138-.284 1.139zm-9.097 2.562l-1.146.56-1.136.284-1.136-.285-.852-.559-.568-1.138-.284-1.139.284-1.138.568-.854.852-.57 1.136-.284 1.136.284 1.146.57.568.854.284 1.138-.284 1.139zm-9.108 3.975l-1.136.57-1.136.284-1.136-.285-.852-.569-.568-1.139-.284-1.138.284-1.139.568-.843.852-.57 1.136-.284 1.136.284 1.136.57.578.843v2.277zm-7.384 5.978l-.862.843-1.136.285-1.136-.285-.852-.844-.568-.853-.284-1.139.284-1.139.568-1.138.852-.57 1.136-.284 1.136.285.862.853.852.854v2.278zm0 0" transform="matrix(.38514 0 0 .38426 -10.435 -5.081)" fill-rule="evenodd" fill="#e3e4e5" stroke-width=".284" stroke="#000"/><path d="M175.092 69.379l-7.11-6.822.852-1.423.284-1.423-.568-1.708-1.42-1.982-1.988-1.708-2.85-1.708-3.408-1.708-3.986-1.423-4.26-1.138-4.553-.844-5.396-1.139-5.69-1.708-11.948-3.984-5.68-1.993-5.121-1.413-4.544-.57h-1.714l-1.42.285 2.566-3.985h1.136l1.42.57 3.124 1.423 3.418 1.423 2.84.854 5.405 1.698 6.532 2.277 6.542 2.277 5.974 1.992 2.84.57 2.566.569 4.543.854 4.554 1.128 3.692 1.423 3.418 1.708 2.84 1.993 1.988 1.708 1.42 1.982.294.854.284.854-.284 1.423-.578 1.423 5.69 5.683zm0 0" transform="matrix(.38514 0 0 .38426 -10.435 -5.081)" fill="#eac102" stroke-width=".284" stroke="#010101"/><path d="M171.684 60.565l.284-1.423-.284-.854-.294-.854-1.42-1.982-1.988-1.708-2.84-1.993-3.418-1.708-3.692-1.423-4.554-1.128-4.543-.854-2.566-.57-2.84-.569-5.974-1.992-6.542-2.277-6.532-2.277-5.405-1.698 8.245 1.982 8.246 2.277 7.962 1.993 3.692.854 3.418.854 5.111 1.138 4.838 1.413 4.554 1.993 3.976 2.277 3.418 2.562 2.84 2.836 1.42 2.846.568 1.423.284 1.424-.284 2.277-.284 1.138-.284 1.129-5.69-5.683zm0 0" transform="matrix(.38514 0 0 .38426 -10.435 -5.081)" fill="#eac102" stroke-width=".284" stroke="#010101"/><path d="M113.67 34.978l.852.57 1.146.284 1.136-.285.852-.57.852-1.138.284-1.138-.284-1.139-.852-.854-.852-.569-1.136-.285-1.146.285-.852.57-.568.853-.284 1.139.284 1.138zm8.245 2.562l1.136.843 1.146.285 1.136-.285.852-.843.568-.854.284-1.139-.284-1.138-.568-1.139-.852-.57-1.136-.284-1.146.285-1.136.854-.568.854-.284 1.138.284 1.139zm8.815 2.551l1.135.57 1.146.284 1.136-.284.852-.57.568-.854.284-1.138-.284-1.129-.568-1.138-.852-.57-1.136-.284-1.146.285-1.136.569-.568 1.138-.284 1.129.284 1.138zm9.391 2.277l.852.57 1.136.284 1.136-.284.852-.57.568-.854.284-1.138-.284-1.139-.568-1.138-.852-.56-1.136-.284-1.136.285-.852.559-.568 1.138-.294 1.139.294 1.138zm8.814 2.277l1.136.57 1.136.284 1.136-.284.851-.57.568-1.138.284-1.139-.284-1.138-.568-.854-.851-.854h-1.136l-1.136.285-1.136.569-.568.854-.284 1.138.284 1.139zm9.097 2.562l1.136.56 1.136.284 1.136-.285.852-.559.568-1.138.284-1.139-.284-1.138-.568-.854-.852-.57-1.136-.284-1.136.284-1.136.57-.568.854-.284 1.138.284 1.139zm9.098 3.975l1.136.57 1.136.284 1.136-.285.852-.569.578-1.139.284-1.138-.284-1.139-.578-.843-.852-.57-1.136-.284-1.136.284-1.136.57-.568.843-.284 1.139.284 1.138zm7.394 5.978l.852.843 1.136.285 1.136-.285.852-.844.568-.853.284-1.139-.284-1.139-.568-1.138-.852-.57-1.136-.284-1.136.285-1.704 1.707v2.278zM96.326 34.409l-.568.854-.284.853.284 1.139.568.844.568.57h1.704l.568-.57.578-.844v-1.992l-.578-.854-.568-.57h-1.704zM92.35 37.54l-.568.559v1.992l.568.854.568.57.852.284.852-.285.568-.569.568-.854V38.1l-.568-.56-.568-.569-.852-.284-.852.284zm-4.27 2.836l-.567.57v1.992l.568.854.568.569.851.284.852-.284.568-.57.579-.853V41.23l-.579-.854-.568-.57-.852-.284-.851.285zm-4.26 2.277l-.283.57-.284 1.138.568 1.708.568.569.852.285.852-.285.852-.57.284-.569.284-1.138-.568-1.708-.852-.57-.852-.284-.568.285zm-4.27 2.277l-.567.57v1.992l.568.844.568.569.852.285.852-.285 1.136-1.139.294-1.128-.294-.854-.568-.854-.568-.57-.852-.284-.852.285zm-4.259 2.562l-.578.559v1.992l.578.854.568.57.852.284.852-.284.568-.57.568-.854v-1.707l-.568-.844-.568-.57-.852-.284-.852.285zm-4.27 2.836l-.568.854v1.992l.568.854.568.57h1.704l.568-.57.568-.854.284-.853-.284-1.139-.568-.854-.568-.285-.852-.284h-.852zm-3.691 4.839l-.579.57v1.982l.578.853.568.57.852.284.852-.284.568-.57.568-.853V56.02l-.568-.854-.568-.57-.852-.284-.852.285zm0 0" transform="matrix(.38514 0 0 .38426 -10.435 -5.081)" fill-rule="evenodd" fill="#e3e4e5" stroke-width=".284" stroke="#000"/><path d="M100.596 32.7l-.284.57-3.418 3.131-3.408 2.836-3.134 2.277-2.84 1.993-2.555 1.708-2.566 1.423-4.544 2.552-3.702 1.992-3.408 2.277-2.556 2.847-1.146 1.697L65.9 60.28l1.136 2.847v8.244l.578 2.562.568 2.562 2.272.284v-7.97l.852-3.405.852-1.423 1.136-1.424 1.136-3.415 1.998-2.836 3.124-2.847 3.408-2.277 4.27-2.846 4.837-3.121 5.112-3.985 2.85-2.277 2.84-2.552v-4.554l-1.704.285zm0 0" transform="matrix(.38514 0 0 .38426 -10.435 -5.081)" fill-rule="evenodd" fill="#eac102" stroke-width=".284" stroke="#000"/><path d="M113.67 34.409l.568.854.284.853-.284 1.139-.568.844-.568.57h-1.704l-.568-.57-.568-.844v-1.992l.568-.854.568-.57h1.704zm3.986 3.131l.568.559v1.992l-.568.854-.568.57-.852.284-.852-.285-.578-.569-.568-.854V38.1l.568-.56.578-.569.852-.284.852.284zm4.259 2.836l.568.57v1.992l-.568.854-.568.569-.851.284-.852-.284-.568-.57-.568-.853-.284-.854.284-.854.568-.854.568-.57.852-.284.851.285zm4.27 2.277l.284.57.284 1.138-.568 1.708-.568.569-.852.285-.852-.285-.862-.57-.284-.569-.284-1.138.568-1.708.862-.57.852-.284.568.285zm4.26 2.277l.568.57v1.992l-.568.844-.568.569-.852.285-.852-.285-1.136-1.139-.284-1.128.284-.854.568-.854.568-.57.852-.284.852.285zm4.27 2.562l.568.559v1.992l-.568.854-.568.57-.852.284-.852-.284-.578-.57-.568-.854v-1.707l.568-.844.578-.57.852-.284.852.285zm4.26 2.836l.578.854v1.992l-.578.854-.568.57h-1.704l-.568-.57-.568-.854-.284-.853.284-1.139.284-.854 1.704-.57h.852zm3.702 4.839l.568.57v1.982l-.568.853-.568.57-.852.284-.852-.284-.568-.57-.578-.853V56.02l.578-.854.568-.57.852-.284.852.285zm0 0" transform="matrix(.38514 0 0 .38426 -10.435 -5.081)" fill-rule="evenodd" fill="#e3e4e5" stroke-width=".284" stroke="#000"/><path d="M109.41 32.7l.284.57 3.408 3.131 3.418 2.836 3.124 2.277 2.84 1.993 2.565 1.708 2.556 1.423 4.554 2.552 3.692 1.992 3.408 2.277 2.566 2.847 1.136 1.697 1.136 2.277-1.136 2.847v3.985l-.284 4.259-.284 2.562-.568 2.562-2.272.284v-7.97l-.862-3.405-.852-1.423-1.136-1.424-1.136-3.415-1.988-2.836-3.134-2.847-3.408-2.277-4.27-2.846-4.827-3.121-5.122-3.985-2.84-2.277-2.84-2.552v-4.554l1.704.285zm0 0" transform="matrix(.38514 0 0 .38426 -10.435 -5.081)" fill-rule="evenodd" fill="#eac102" stroke-width=".284" stroke="#000"/><path d="M111.966 44.93l7.11 1.139 3.407.854 3.134.843 2.556.854 1.704 1.139 3.134 1.708 2.556 1.423 2.84.854 2.85.569 2.556.57 1.988.284 2.282-.285h1.988l3.123.285 3.418 1.139 3.976 1.697 3.702 2.277 1.704 1.139 1.136 1.423.852 1.139.568 1.423 1.42 2.551 1.42 2.562-18.196 34.411H56.801l-18.195-34.41 1.704-2.563 1.136-2.551 1.714-2.562 1.136-1.423L46 60.28l3.692-2.277 3.986-1.697 3.407-1.139 2.85-.285h2.272l2.272.285 1.988-.285 2.85-.569 2.556-.57 2.84-.853 2.85-1.423 2.84-1.708 1.704-1.139 2.566-.854 2.84-.843 3.123-.854 7.11-1.139 7.11-.57 3.418.285zm0 0" transform="matrix(.38514 0 0 .38426 -10.435 -5.081)" fill="#ed1c24" stroke-width=".284" stroke="#000"/><path d="M111.114 27.872c0 3.406-2.84 6.252-6.258 6.252-3.124 0-5.974-2.846-5.974-6.252 0-3.13 2.85-5.977 5.974-5.977 3.418 0 6.258 2.846 6.258 5.977zm0 0" transform="matrix(.38514 0 0 .38426 -10.435 -5.081)" fill-rule="evenodd" fill="#0071bc" stroke-width=".284" stroke="#000"/><path d="M102.016 15.643v1.423h2.272v5.113h1.42v-5.113h2.282v-1.423h-2.282v-2.277h-1.42v2.277zm0 0" transform="matrix(.38514 0 0 .38426 -10.435 -5.081)" fill-rule="evenodd" fill="#eac102" stroke-width=".284" stroke="#000"/><path d="M102.3 26.164h-1.136l-1.136.285h-.568l-.862.285-.284.284v2.267h.284l.568.285-.284-.285V29l.862-.284h1.136l1.704-.285h4.838l1.704.285h1.136l.852.284v.285l-.284.285.568-.285h.284v-2.267l-.284-.284-.852-.285h-.568l-1.136-.285h-2.85V21.61h-1.988v4.554zm0 0" transform="matrix(.38514 0 0 .38426 -10.435 -5.081)" fill-rule="evenodd" fill="#eac102" stroke-width=".284" stroke="#000"/><path d="M153.194 62.273l-.567.854-.852.569-.568.285-1.704.569-4.27-7.96.568-.284h.568l.284-.285.284-.854v-1.139l-1.136-1.423-1.704-1.138-2.556-1.139-2.85-1.423-3.124-1.139-6.542-1.982-4.26-1.708-3.985-1.992-8.246-4.544-3.692-1.993-3.418-1.423-2.84-.854h-1.136l-1.136.285 1.704-.57 1.988-.284 2.556.284 2.85.854h.284l4.26 2.277 4.554 2.552 4.543 2.277 4.554 1.993 2.272.854 1.988.569 4.27 1.138 3.702 1.424 3.408 1.413 2.84 1.707 2.282 1.708 1.704 1.708.568 1.423v1.424l-.568.853v.56l-.568.284h-1.704l3.124 4.27 1.704-.854 1.42-1.423.283-.57-.568 1.993zm0 0" transform="matrix(.38514 0 0 .38426 -10.435 -5.081)" fill="#eac102" stroke-width=".284" stroke="#010101"/><path d="M152.627 61.419l-1.704.854-3.124-4.554h1.42l.852-.56.568-1.138v-1.139l-.568-1.423-1.704-1.708-2.282-1.708-2.84-1.707-3.408-1.413-3.702-1.424-4.27-1.138-1.988-.57-2.272-.853-4.554-1.993-4.543-2.277-4.554-2.552-4.26-2.277h-.284l5.68 1.993 5.973 2.551 6.258 2.562 5.69 1.708 4.544 1.139 4.27 1.707 4.26 1.708 3.418 1.983 3.124 2.277 1.703 2.277.568 1.423.284 1.423-.284 1.413-.568 1.423-.284.57zm0 0" transform="matrix(.38514 0 0 .38426 -10.435 -5.081)" fill="#eac102" stroke-width=".284" stroke="#010101"/><path d="M111.114 34.693l.852.57 1.136.284h1.136l.852-.57.862-.853.284-1.423-.284-1.139-.284-.854-.862-.854-1.136-.284h-1.136l-1.136.569-1.136 2.277.284 1.139zm28.723 10.522l.852.854 1.136.284 1.136-.284.852-.57.852-.854.284-1.138-.568-2.277-.852-.854-1.136-.285-1.136.285-1.136.57-.568.853-.578 1.139.284 1.423zm5.68 2.551l.852.854 1.136.285 1.146-.285 1.136-.569.568-.844.284-1.138V44.93l-.568-1.138-.852-.854-1.136-.285-1.146.285-.852.569-.852.854-.284 1.138v1.139zm4.553 4.554l.853.854 1.136.285 1.135-.285.852-.569.852-.854.284-1.138-.568-2.277-.852-.844-1.135-.285-1.136.285-1.136.559-.852.854-.284 1.138.284 1.424zm-33.55-15.35l.852.844 1.136.285h1.136l1.136-.56 1.135-2.276-.284-1.139-.568-1.139-.851-.569-1.136-.284h-1.136l-.852.569-.852.854-.284 1.423v1.138zm5.68 2.837l.851.569 1.146.285h1.136l.852-.57.852-.854.284-1.423-.284-1.128-.284-.854-.852-.854-1.136-.285h-1.135l-1.147.57-1.136 2.277.284 1.128zm5.69 1.707l.851.854 1.136.285 1.136-.285.852-.569.862-.854.284-1.138v-1.139l-.568-1.128-.862-.854-1.136-.285-1.136.285-1.136.569-.568.844-.568 1.138.284 1.424zm5.69 1.993l.851.57 1.136.284h1.136l1.136-.57.568-.853.284-1.424v-1.138l-.568-1.139-.852-.569-1.136-.285h-1.136l-.852.57-.852 1.138-.284 1.139v1.138zm0 0" transform="matrix(.38514 0 0 .38426 -10.435 -5.081)" fill-rule="evenodd" fill="#e3e4e5" stroke-width=".284" stroke="#000"/><path d="M56.801 62.273l.568.854.852.569.568.285.862.284.852.285 4.26-7.96-.568-.284h-.568l-.284-.285-.284-.854v-1.139l1.136-1.423 1.704-1.138 2.566-1.139 2.84-1.423 3.124-1.139 6.542-1.982 4.27-1.708 3.975-1.992 8.246-4.544 3.702-1.993 3.408-1.423 2.85-.854h1.136l1.136.285-1.704-.57-1.998-.284-2.556.284-2.84.854h-.284l-4.27 2.277-4.543 2.552-4.554 2.277-4.554 1.993-2.272.854-1.988.569-4.27 1.138-3.692 1.424-3.418 1.413-2.84 1.707-2.272 1.708-1.704 1.708-.567 1.423v1.424l.567.853v.56l.568.284h1.704l-3.134 4.27-1.988-.854-1.135-1.423-.284-.57.568 1.993zm0 0" transform="matrix(.38514 0 0 .38426 -10.435 -5.081)" fill="#eac102" stroke-width=".284" stroke="#010101"/><path d="M57.085 61.419l1.988.854 3.134-4.554h-1.42l-.852-.56-.567-1.138v-1.139l.567-1.423 1.704-1.708 2.272-1.708 2.84-1.707 3.418-1.413 3.692-1.424 4.27-1.138 1.988-.57 2.272-.853 4.554-1.993 4.554-2.277 4.543-2.552 4.27-2.277h.284l-5.69 1.993-5.974 2.551-6.257 2.562-5.68 1.708-4.554 1.139-4.26 1.707-4.27 1.708-3.408 1.983-3.134 2.277-1.703 2.277-.568 1.423-.284 1.423.284 1.413.568 1.423.284.57zm0 0" transform="matrix(.38514 0 0 .38426 -10.435 -5.081)" fill="#eac102" stroke-width=".284" stroke="#010101"/><path d="M98.882 34.693l-.852.57-1.136.284h-1.136l-.852-.57-.852-.853-.284-1.423v-1.139l.568-.854.852-.854 1.136-.284h1.136l1.136.569.568 1.139.578 1.138-.284 1.139zM70.17 45.215l-.853.854-1.136.284-1.146-.284-.852-.57-.852-.854-.284-1.138.568-2.277.852-.854 1.146-.285 1.136.285 1.136.57.568.853.568 1.139-.284 1.423zm-5.69 2.551l-.853.854-1.136.285-1.136-.285-1.136-.569-.568-.844-.578-1.138.295-1.139.567-1.138.852-.854 1.136-.285 1.136.285.852.569.852.854.284 1.138v1.139zm-4.545 4.554l-.862.854-1.136.285-1.136-.285-.851-.569-.852-.854-.284-1.138v-1.139l.568-1.138.852-.844 1.135-.285 1.136.285 1.146.559.568.854.568 1.138-.284 1.424zm33.551-15.35l-.852.844-1.135.285h-1.147l-1.136-.56-1.135-2.276.284-1.139.567-1.139.852-.569 1.136-.284h1.146l.852.569.852.854.284 1.423v1.138zm-5.689 2.837l-.852.569-1.136.285h-1.136l-.852-.57-.862-.854-.284-1.423v-1.128l.578-.854.852-.854 1.136-.285h1.136l1.136.57 1.136 2.277-.284 1.128zm-5.69 1.707l-.852.854-1.136.285-1.136-.285-.852-.569-.852-.854-.284-1.138v-1.139l.568-1.128.852-.854 1.136-.285 1.136.285 1.136.569.568.844.284 1.138v1.424zm-5.68 1.993l-.852.57-1.146.284h-1.136l-1.136-.57-.568-.853-.284-1.424v-1.138l.568-1.139.852-.569 1.136-.285h1.136l.862.57.852 1.138.284 1.139v1.138zm0 0" transform="matrix(.38514 0 0 .38426 -10.435 -5.081)" fill-rule="evenodd" fill="#e3e4e5" stroke-width=".284" stroke="#000"/><path d="M99.744 34.978l-.578 2.562v4.26l-.284 2.845-.568 2.562-.568 2.267-.568 1.993 7.962 5.692 7.678-5.692-.852-1.993-.568-2.267-.284-2.562-.284-2.846v-4.26l-.568-2.561-.852-1.423-1.42-.854v9.952l.284 1.139v3.974l.568 1.424.284 1.138-3.986 3.7-4.26-3.7.284-1.138.568-1.424v-5.113l.284-1.423V32.7l-1.42.855zm0 0" transform="matrix(.38514 0 0 .38426 -10.435 -5.081)" fill="#eac102" stroke-width=".284" stroke="#000"/><path d="M102.016 35.263v5.967l-.284 1.423v5.113l-.568 1.424-.284 1.138 4.26 3.7 3.986-3.7-.284-1.138-.568-1.424v-3.974l-.284-1.139v-9.952l-1.43-.57-1.42-.284-1.704.285-1.42.569zm0 0" transform="matrix(.38514 0 0 .38426 -10.435 -5.081)" fill="#eac102" stroke-width=".284" stroke="#000"/><path d="M108.274 33.555c0 1.992-1.43 3.7-3.418 3.7-1.704 0-3.124-1.708-3.124-3.7 0-1.708 1.42-3.416 3.124-3.416 1.988 0 3.418 1.708 3.418 3.416zm0 0" transform="matrix(.38514 0 0 .38426 -10.435 -5.081)" fill-rule="evenodd" fill="#e3e4e5" stroke-width=".284" stroke="#000"/><path d="M108.274 35.832c0 1.982-1.43 3.405-3.418 3.405-1.704 0-3.124-1.423-3.124-3.405 0-1.993 1.42-3.416 3.124-3.416 1.988 0 3.418 1.423 3.418 3.416zm0 0" transform="matrix(.38514 0 0 .38426 -10.435 -5.081)" fill-rule="evenodd" fill="#e3e4e5" stroke-width=".284" stroke="#000"/><path d="M108.274 37.54c0 1.982-1.43 3.69-3.418 3.69-1.704 0-3.124-1.708-3.124-3.69 0-1.708 1.42-3.416 3.124-3.416 1.988 0 3.418 1.708 3.418 3.416zm0 0" transform="matrix(.38514 0 0 .38426 -10.435 -5.081)" fill-rule="evenodd" fill="#e3e4e5" stroke-width=".284" stroke="#000"/><path d="M108.274 38.668c0 1.993-1.43 3.7-3.418 3.7-1.704 0-3.124-1.707-3.124-3.7 0-1.698 1.42-3.405 3.124-3.405 1.988 0 3.418 1.707 3.418 3.405zm0 0" transform="matrix(.38514 0 0 .38426 -10.435 -5.081)" fill-rule="evenodd" fill="#e3e4e5" stroke-width=".284" stroke="#000"/><path d="M108.274 39.807c0 1.707-1.43 3.415-3.418 3.415-1.704 0-3.124-1.708-3.124-3.415 0-1.993 1.42-3.69 3.124-3.69 1.988 0 3.418 1.697 3.418 3.69zm0 0" transform="matrix(.38514 0 0 .38426 -10.435 -5.081)" fill-rule="evenodd" fill="#e3e4e5" stroke-width=".284" stroke="#000"/><path d="M108.274 40.945c0 1.708-1.43 3.416-3.418 3.416-1.704 0-3.124-1.708-3.124-3.416 0-1.992 1.42-3.69 3.124-3.69 1.988 0 3.418 1.698 3.418 3.69zm0 0" transform="matrix(.38514 0 0 .38426 -10.435 -5.081)" fill-rule="evenodd" fill="#e3e4e5" stroke-width=".284" stroke="#000"/><path d="M108.274 42.653c0 1.992-1.43 3.7-3.418 3.7-1.704 0-3.124-1.708-3.124-3.7 0-1.708 1.42-3.416 3.124-3.416 1.988 0 3.418 1.708 3.418 3.416zm0 0" transform="matrix(.38514 0 0 .38426 -10.435 -5.081)" fill-rule="evenodd" fill="#e3e4e5" stroke-width=".284" stroke="#000"/><path d="M108.274 47.207c0 1.698-1.43 3.406-3.418 3.406-1.704 0-3.124-1.708-3.124-3.406 0-1.992 1.42-3.7 3.124-3.7 1.988 0 3.418 1.708 3.418 3.7zm0 0" transform="matrix(.38514 0 0 .38426 -10.435 -5.081)" fill-rule="evenodd" fill="#e3e4e5" stroke-width=".284" stroke="#000"/><path d="M48.84 97.243l1.988 1.992.862.57h.852l.284-.285v-2.277l-.568-1.983-3.986-7.685-.568-.57h-.852l-.568.57-.284.57-.852 2.561 1.988 3.416zm0 0" transform="matrix(.38514 0 0 .38426 -10.435 -5.081)" fill-rule="evenodd" fill="#eac102" stroke-width=".284" stroke="#000"/><path d="M48.272 91.845l-1.704-2.277-1.704-2.562-1.704-3.121-.578-.285h-.852l-.568.285v.57l2.566 4.259 1.988 3.13 1.704 2.278 1.42 1.423.568-1.992zm112.884 5.398l-1.988 1.992-.852.57h-.852l-.284-.285v-2.277l.568-1.983 3.976-7.685.568-.57h.852l.568.57.284.57.862 2.561-1.998 3.416zm0 0" transform="matrix(.38514 0 0 .38426 -10.435 -5.081)" fill-rule="evenodd" fill="#eac102" stroke-width=".284" stroke="#000"/><path d="M162.576 94.122l1.714-2.277 1.988-3.131 2.556-4.26v-.569l-.568-.285h-.852l-.568.285-1.704 3.12-1.998 2.563-1.42 2.277-1.42 1.708.852 1.992zM30.928 64.835l1.42.284 2.556 1.139 1.714 1.413.568.854.284.569.852-.285.568-.284 1.704.284-.284 1.139v1.423l-.284 1.139-.284 1.423 1.42.57.568.853 1.136-.57h1.146v2.837l-.568 1.138-.578.854-.284.285.284.854 1.998-2.277h2.272l.568.284 1.136 1.14.852.284-1.136 1.708-1.136 1.992-1.136.57-1.42-.285 1.704.854 1.136.853.852 1.129.568 1.138h-2.272l1.988 2.847 1.988 2.277h-.852l-4.828-1.993-4.27-3.984-4.828-6.822-.284-10.806-1.43-1.138-1.42-1.139-.568-.559-1.136-.57-1.42-.284h-1.988l1.42-.854zm0 0" transform="matrix(.38514 0 0 .38426 -10.435 -5.081)" fill-rule="evenodd" fill="#eac102" stroke-width=".284" stroke="#000"/><path d="M31.78 67.955l1.136 1.708 1.136 1.993 1.146 4.554.284 2.267.568 2.277 4.544 6.537 1.704 1.992 1.714 1.708 1.42 1.423 1.42.854h3.408l-1.136-.57-.852-.569-1.136-1.707-.852-.854-1.136-.854-1.704-.854-1.998-.854.568-.285h.568l1.43.854 1.42.57h2.84l-1.42-1.698-2.84-1.708-1.146-.57 1.146-.284 1.704.57.568-.285.852-.57.568-1.138.284-1.139.852-1.138-3.408-1.708-1.42.284-.568.57-.578.57-.852.853-.852.57V79.9l.568-.854.568-.57.284-.853.284-.57v-.558l-.284-.854.284-.854-1.704.569-1.136.854-.568.844-.284.854-.568 1.423-.568.854-.568.569v-1.708l.568-.854.852-.854.568-.843.852-1.139-.568-.57-.568-.284-.852-.285.568-1.138V71.94l.568-2.846-1.136-.285-.852.285-.852.854-.284-.854-.568-.854-.862-.854-1.136-.844-1.42-.854-1.42-.284h-1.704l-1.704.854 2.556.569zm0 0" transform="matrix(.38514 0 0 .38426 -10.435 -5.081)" fill-rule="evenodd" fill="#eac102" stroke-width=".284" stroke="#000"/><path d="M37.754 71.94l-.852 2.277-.568 2.278v4.544m3.692-1.709l-.852 1.709-1.704 1.423m7.678-.854l-1.42.285-1.43.569-1.42.854-2.272.569m.568.854l2.84.57 2.282.853m-3.986.559l1.704 1.708 1.714 1.139 1.136.854.852.853" transform="matrix(.38514 0 0 .38426 -10.435 -5.081)" fill="none" stroke-width=".076" stroke="#000"/><path d="M38.89 87.006h-1.136l-1.136-.56-.852-.853-.568-1.139v-1.138l.284-1.139.852-.57v-.284l3.692 5.398zm0 0" transform="matrix(.38514 0 0 .38426 -10.435 -5.081)" fill="#e3e4e5" stroke-width=".284" stroke="#000"/><path d="M40.026 87.29l.568-.284-2.272-3.69-1.136-1.423-.852-1.139-.852.57zm0 0" transform="matrix(.38514 0 0 .38426 -10.435 -5.081)" fill="#eac102" stroke-width=".284" stroke="#000"/><path d="M179.068 64.835l-1.42.284-2.556 1.139-1.704 1.413-.568.854-.284.569-.852-.285-.578-.284-1.704.284.284 1.139v2.562l.568 1.423-1.42.57-.568.853-1.136-.57h-1.136v2.837l.568 1.138.568.854.284.285-.284.854-1.988-2.277h-2.282l-.568.284-1.136 1.14-.852.284 1.136 1.708 1.136 1.992 1.136.57 1.43-.285-1.714.854-1.136.853-.852 1.129-.568 1.138h2.272l-1.988 2.847-1.988 2.277h.852l4.838-1.993 4.26-3.984 4.838-6.822.284-10.806 2.84-2.277.568-.559 1.136-.57 1.43-.284h1.988l-1.42-.854zm0 0" transform="matrix(.38514 0 0 .38426 -10.435 -5.081)" fill-rule="evenodd" fill="#eac102" stroke-width=".284" stroke="#000"/><path d="M178.216 67.955l-1.136 1.708-1.136 1.993-1.136 4.554-.284 2.267-.568 2.277-4.554 6.537-1.704 1.992-3.124 3.131-1.43.854h-3.408l1.136-.57.852-.569 1.136-1.707.852-.854 1.146-.854 1.42-.854 2.272-.854-.568-.285h-.852l-1.136.854-1.42.57h-2.85l1.42-1.698 1.43-.854 1.42-.854 1.136-.57-1.136-.284-1.704.57-.578-.285-.852-.57-.568-1.138-.284-1.139-.852-1.138 2.272-1.139 1.146-.57 1.42.285 1.988 1.993.852.57V79.9l-.568-.854-.568-.57-.568-.853v-2.836l1.704.569 1.136.854.568.844.284.854.568 1.423.578.854.568.569v-1.708l-.568-.854-.862-.854-.568-.843-.852-1.139.568-.57 1.136-.569-.284-1.138V71.94l-.568-2.846 1.146-.285.852.285.852.854.284-.854.568-.854.852-.854 1.136-.844 1.42-.854 1.42-.284h1.714l1.704.854-2.556.569zm0 0" transform="matrix(.38514 0 0 .38426 -10.435 -5.081)" fill-rule="evenodd" fill="#eac102" stroke-width=".284" stroke="#000"/><path d="M172.252 71.94l.852 2.277.568 2.278v4.544m-3.702-1.709l.284 1.14.568.569 1.714 1.423m-7.678-.854l1.42.285 1.42.569 1.42.854 2.272.569m-.568.854l-2.84.57-2.272.853m3.976.559l-1.704 1.708-1.704 1.139-1.136.854-.852.853" transform="matrix(.38514 0 0 .38426 -10.435 -5.081)" fill="none" stroke-width=".076" stroke="#000"/><path d="M171.106 87.006h1.146l1.136-.56.852-.853.568-1.139v-1.138l-.284-1.139-.852-.57v-.284l-3.702 5.398zm0 0" transform="matrix(.38514 0 0 .38426 -10.435 -5.081)" fill="#e3e4e5" stroke-width=".284" stroke="#000"/><path d="M169.97 87.29l-.568-.284 1.988-3.69 1.146-1.423 1.136-1.139.852.57zm0 0" transform="matrix(.38514 0 0 .38426 -10.435 -5.081)" fill="#eac102" stroke-width=".284" stroke="#000"/><path d="M104.288 75.64l-.568 3.975-1.704 3.985-1.136 1.708-1.42 1.698-1.998 1.138-2.556.57H92.35l-2.282-.854-2.271-1.413-1.988-1.993-1.704-1.992-1.146-2.277-.852-1.993-.284-1.697-.284-.57-.852-.284-.568.284-.284.57.284 4.259-.568 3.985-.568 1.708-1.136 1.697-1.136.854-1.714.854h-1.704l-1.988-.284-1.704-.854-1.988-1.423-1.714-1.983-1.704-1.992-2.84-4.84-.568-.853h-.852l-.567.285v.569l.851 2.562.568 2.561.284 2.277v3.406l-1.136 2.277-.862.57h-1.136l-1.136-.57-1.42-1.138-1.703-1.708-1.42-1.708-1.714-1.982-2.556-4.27-.568-.285h-.852l-.568.285v.57l1.42 3.415 1.704 3.12.852 3.416.568 3.131-1.136-.853-.568 1.992 1.136.854.852.56h.862l.568-.286.568-.843v-1.424l-.284-1.992-.852-2.562 4.544 3.416 1.135.57 1.42.284h.862l1.136-.57 1.42-1.423.852-1.992.284-2.277v-2.836L65.9 87.86l3.134 2.562 1.42.853 1.704.57 1.704.284 1.43-.284 2.84-1.139 1.988-1.992 1.136-2.837.852-3.415 2.282 3.13 2.84 3.122 1.987 1.138 1.704.57 2.282.569h1.988l2.272-.57 1.704-.853 1.43-1.424 1.42-1.423 1.988-2.836.568-1.139.284-1.138 1.136 2.277 1.998 2.836 1.136 1.423 1.704 1.424 1.704.854 2.272.569h1.998l2.272-.57 1.704-.569 1.987-1.138 2.85-3.121 2.272-3.131.852 3.415 1.136 2.837 1.988 1.992 2.85 1.139 1.42.284 1.704-.284 1.714-.57 1.42-.853 3.124-2.562 2.556-2.836v2.836l.284 2.277.862 1.992 1.42 1.424 1.136.569h.852l1.42-.285 1.135-.57 2.282-1.707 2.272-1.708-.852 2.562-.284 1.992v1.424l.568.843.568.285h.852l.852-.285 1.136-1.128-.852-1.992-.852.853.568-3.13.852-3.416 1.704-3.121 1.42-3.416v-.569l-.568-.285h-.852l-.568.285-2.556 4.27-1.704 1.982-1.42 1.708-1.714 1.708-1.42 1.138-1.135.57h-1.136l-.852-.57-1.136-2.277v-3.406l.284-2.277.568-2.561.852-2.562v-.57l-.568-.284h-.852l-.568.854-2.85 4.839-1.704 1.992-1.704 1.983-1.988 1.423-1.714.854-1.988.284H135l-1.704-.854-1.136-.854-1.146-1.697-.568-1.708-.568-3.985.284-4.26-.284-.569-.568-.284-.568.284-.568.57-.284 1.697-.852 1.993-1.136 2.277-1.704 1.992-1.998 1.993-2.271 1.413-2.272.854h-2.566l-2.556-.57-1.988-1.138-1.42-1.698-1.136-1.708-.852-1.992-.862-1.993-.568-3.974-.284-.285-.568-.285zm0 0" transform="matrix(.38514 0 0 .38426 -10.435 -5.081)" fill-rule="evenodd" fill="#eac102" stroke-width=".284" stroke="#000"/><path d="M132.443 75.64c0 1.698-1.43 3.121-3.134 3.121-1.988 0-3.408-1.423-3.408-3.12 0-1.424 1.42-2.847 3.408-2.847 1.704 0 3.134 1.423 3.134 2.847zm0 0" transform="matrix(.38514 0 0 .38426 -10.435 -5.081)" fill-rule="evenodd" fill="#e3e4e5" stroke-width=".284" stroke="#000"/><path d="M130.73 78.477v.57h-.569v.284l-.284.284v.285l-.284.285h-1.136l-.852-.285-.284-.285v-.569l-.284-.285v-.284l-.284-.285 1.988.285zm0 0" transform="matrix(.38514 0 0 .38426 -10.435 -5.081)" fill-rule="evenodd" fill="#eac102" stroke-width=".284" stroke="#000"/><path d="M84.105 75.64c0 1.698-1.43 3.121-3.134 3.121-1.988 0-3.408-1.423-3.408-3.12 0-1.424 1.42-2.847 3.408-2.847 1.704 0 3.134 1.423 3.134 2.847zm0 0" transform="matrix(.38514 0 0 .38426 -10.435 -5.081)" fill-rule="evenodd" fill="#e3e4e5" stroke-width=".284" stroke="#000"/><path d="M79.267 78.477v.57h.284l.284.284v.284l.568.57h.852l1.136-.285.284-.285v-.569l.284-.285v-.284l.294-.285-1.998.285zm0 0" transform="matrix(.38514 0 0 .38426 -10.435 -5.081)" fill-rule="evenodd" fill="#eac102" stroke-width=".284" stroke="#000"/><path d="M45.148 83.316l1.136.284 1.42-.284 1.136-.57 1.136-2.277-.284-1.138-.568-1.139-1.136-.57-1.136-.284-1.42.285-.852.57-.852.853-.284 1.139v1.138l.852 1.139zm0 0" transform="matrix(.38514 0 0 .38426 -10.435 -5.081)" fill-rule="evenodd" fill="#e3e4e5" stroke-width=".284" stroke="#000"/><path d="M46 83.6l.284.285h.568l.284.57h.568l.852-.285.852-.57.284-.284-.284-.57v-.284l.284-.285-.284-.284-1.42.853zm0 0" transform="matrix(.38514 0 0 .38426 -10.435 -5.081)" fill-rule="evenodd" fill="#eac102" stroke-width=".284" stroke="#000"/><path d="M164.858 83.316l-1.146.284-1.42-.284-1.136-.57-1.136-2.277.284-1.138.568-1.139 1.136-.57 1.136-.284 1.43.285.852.57.852.853.284 1.139v1.138l-.852 1.139zm0 0" transform="matrix(.38514 0 0 .38426 -10.435 -5.081)" fill-rule="evenodd" fill="#e3e4e5" stroke-width=".284" stroke="#000"/><path d="M163.996 83.6l-.284.285h-.568l-.284.57h-.568l-.852-.285-.852-.57-.284-.284.284-.57v-.284l-.284-.285.284-.284 1.42.853zM92.634 63.127l1.136.284 1.704.57.852.569.568.854 1.704 1.423 1.998.56 1.42.284h.852l-1.988 5.977-11.096-4.554v-.285l.284-.284.852-.285h.862l1.136.285.852.569 1.136.285h1.42l-4.26-6.252zm24.738 0l-1.136.284-1.714.57-.852.569-.568.854-1.704 1.423-1.988.56-1.42.284h-.852l1.988 5.977 11.086-4.554v-.285l-.284-.284-.852-.285h-.852l-1.136.285-.852.569-1.146.285h-1.42l4.27-6.252zm0 0" transform="matrix(.38514 0 0 .38426 -10.435 -5.081)" fill-rule="evenodd" fill="#eac102" stroke-width=".284" stroke="#000"/><path d="M102.3 51.467l-.852 1.992-.568 2.277-1.136-.854h-1.146l-2.272.57.284 1.138v1.413l.568 3.416-1.136.57-1.136 1.138.284.569.852.57 1.988.853 2.282 1.423.852.844.568 1.139-1.988-.57-1.146-.569-1.136-.844-.568-.854-.852-.853-.852-.57-1.42-.854-1.988-.284v1.708l.284 1.138.284.854.568.56 1.42 1.138.284.569.284.854-1.136-.285-.852-.284-.568-.57-1.146-.284-1.42.284-1.987 1.993-1.136.854 1.42.854 2.271 1.707 1.43.57h.852l.568-.57.852-.284h1.136l-.568.854-.568.569-1.136.854-.568 1.128v.854l.284 1.139h1.988l1.42-.285.852-.57.568-.853 1.136-1.413.862-.285h1.42l-1.998 1.413-1.136 1.424-.852 1.138-.284.854.284 1.992-.568 2.278 2.272-.57 1.714-.569 1.988-.57 1.42-.853 1.136-.854 1.42.854 1.43.854 1.988.569 1.704.57 2.272.569-.568-2.278.284-1.992-.284-.854-.852-1.139-1.136-1.423-1.988-1.413h1.42l.852.285.852 1.413.852.854.852.57 1.43.284h1.988l.284-1.139v-.854l-.568-1.128-1.136-.854-.568-.57-.578-.853h1.146l.852.284.568.57h.852l1.42-.57 2.271-1.707 1.42-.854-1.136-.854-1.987-1.993-1.42-.284-1.136.284-.568.57-.852.284-1.146.285.294-.854.284-.57 1.42-1.138.568-.559.284-.854.284-1.138v-1.708l-1.988.284-1.43.854-.852.57-.852.853-.568.854-1.136.844-1.136.57-1.988.569.568-1.139.852-.844 2.272-1.423 1.988-.854 1.136-1.138-1.136-1.139-1.136-.57.568-3.415V56.59l.284-1.138-2.272-.57h-1.136l-1.136.854-.568-2.277-.852-1.992-1.146-1.993-1.42-1.708h-.284l-1.42 1.708zm0 0" transform="matrix(.38514 0 0 .38426 -10.435 -5.081)" fill-rule="evenodd" fill="#eac102" stroke-width=".284" stroke="#000"/><path d="M105.14 68.81v-.285l-.284-.57V56.59l.284-2.846v-2.847m-1.136 24.174l-.568 1.708-1.136 1.983-1.42 1.707-1.42 1.424m2.272-8.529l-1.42.284-1.998.57-2.84 1.707m5.974-3.415h-3.986l-2.84-.854-1.988-.57h-.852l-.862.285m10.812-.854h-.284l-1.704-.57-1.43-.284-.568-.284-.852-.854-1.136-1.413m8.53 1.413v-.285l-.284-.854-.568-1.413-.568-1.992-1.136-1.993-1.704-2.562-.284-.284m6.248 15.929l.568 1.708 1.146 1.983 1.42 1.707 1.42 1.424m-2.272-8.529l1.42.284 1.704.57 1.704.853 1.42.854m-5.964-3.415h3.976l2.85-.854 1.988-.57h.852l.852.285m-10.802-.854h.284l1.704-.57 1.42-.284.568-.284.852-.854 1.136-1.413m-8.53 1.413v-.285l.284-.854.568-1.413.578-1.992 1.136-1.993 1.704-2.562.284-.284" transform="matrix(.38514 0 0 .38426 -10.435 -5.081)" fill="none" stroke-width=".076" stroke="#000"/><path d="M109.126 71.94c0 1.993-1.714 3.7-3.986 3.7-2.272 0-3.976-1.707-3.976-3.7 0-1.992 1.704-3.7 3.976-3.7 2.272 0 3.986 1.708 3.986 3.7zm0 0" transform="matrix(.38514 0 0 .38426 -10.435 -5.081)" fill-rule="evenodd" fill="#eac102" stroke-width=".284" stroke="#000"/><path d="M108.274 71.94c0 1.708-1.43 3.131-3.134 3.131s-3.124-1.423-3.124-3.13c0-1.709 1.42-3.132 3.124-3.132 1.704 0 3.134 1.423 3.134 3.131zm0 0" transform="matrix(.38514 0 0 .38426 -10.435 -5.081)" fill-rule="evenodd" fill="#e3e4e5" stroke-width=".284" stroke="#000"/><path d="M80.97 90.99l-11.937 1.14-11.948 1.707-5.68 1.708-2.565 1.413-.852 1.139-.568 1.138v1.139l.284.854 1.704 1.707 1.998.854 1.988.854 4.543 1.139 4.27.844 9.098 1.138 9.382.57 9.097.569h28.44l14.22-.57 14.209-1.707 3.986-.56 3.691-.853 3.986-1.139 3.408-1.992.568-.854.284-1.139v-.854l-.568-1.138-1.42-1.424-1.988-.843-3.702-1.424-3.691-.853-7.394-1.139-7.678-.854-7.678-.57-11.653-.284H92.918zm0 0" transform="matrix(.38514 0 0 .38426 -10.435 -5.081)" fill-rule="evenodd" fill="#eac102" stroke-width=".284" stroke="#000"/><path d="M92.918 94.406l-5.405.285-4.838.285h-3.408l-4.838.284-4.26.57-3.986.284-3.124.56-2.84.284-2.566.57-1.987.569-1.42.284-1.136.285-1.704.854-.862.57-.852.853v.285l2.85 10.236h104.922l2.84-10.236v-.285l-1.42-1.423-1.136-.285-1.136-.57-1.43-.568-1.988-.285-2.271-.57-2.84-.569-3.418-.559-3.976-.284-4.554-.57-5.406-.284h-3.408l-4.838-.285-5.395-.285zm0 0" transform="matrix(.38514 0 0 .38426 -10.435 -5.081)" fill-rule="evenodd" fill="#eac102" stroke-width=".284" stroke="#000"/><path d="M129.877 99.52c0 1.992-1.704 3.7-3.408 3.7-1.988 0-3.702-1.708-3.702-3.7 0-1.993 1.714-3.69 3.702-3.69 1.704 0 3.408 1.697 3.408 3.69zm0 0" transform="matrix(.38514 0 0 .38426 -10.435 -5.081)" fill-rule="evenodd" fill="#eac102" stroke-width=".284" stroke="#000"/><path d="M130.161 99.52c0 1.992-1.704 3.7-3.692 3.7-1.704 0-3.418-1.708-3.418-3.7 0-1.993 1.714-3.69 3.418-3.69 1.988 0 3.692 1.697 3.692 3.69zm0 0" transform="matrix(.38514 0 0 .38426 -10.435 -5.081)" fill-rule="evenodd" fill="#eac102" stroke-width=".284" stroke="#000"/><path d="M129.877 99.52c0 1.708-1.42 3.13-3.124 3.13-1.704 0-3.134-1.422-3.134-3.13s1.43-3.121 3.134-3.121 3.124 1.413 3.124 3.12zm0 0" transform="matrix(.38514 0 0 .38426 -10.435 -5.081)" fill-rule="evenodd" fill="#e3e4e5" stroke-width=".284" stroke="#000"/><path d="M87.229 99.52c0 1.992-1.704 3.7-3.408 3.7-1.998 0-3.702-1.708-3.702-3.7 0-1.993 1.704-3.69 3.702-3.69 1.704 0 3.408 1.697 3.408 3.69zm0 0" transform="matrix(.38514 0 0 .38426 -10.435 -5.081)" fill-rule="evenodd" fill="#eac102" stroke-width=".284" stroke="#000"/><path d="M86.945 99.52c0 1.992-1.704 3.7-3.692 3.7-1.714 0-3.418-1.708-3.418-3.7 0-1.993 1.704-3.69 3.418-3.69 1.988 0 3.692 1.697 3.692 3.69zm0 0" transform="matrix(.38514 0 0 .38426 -10.435 -5.081)" fill-rule="evenodd" fill="#eac102" stroke-width=".284" stroke="#000"/><path d="M86.377 99.52c0 1.708-1.42 3.13-3.124 3.13-1.714 0-3.134-1.422-3.134-3.13s1.42-3.121 3.134-3.121c1.704 0 3.124 1.413 3.124 3.12zm0 0" transform="matrix(.38514 0 0 .38426 -10.435 -5.081)" fill-rule="evenodd" fill="#e3e4e5" stroke-width=".284" stroke="#000"/><path d="M66.467 97.243l5.406 2.846.568-.285-5.69-2.561zm0 0" transform="matrix(.38514 0 0 .38426 -10.435 -5.081)" fill="none" stroke-width=".284" stroke="#000"/><path d="M66.467 104.928l5.406-4.839.568-.285-5.69 4.84zm0 0l-5.396-2.846 5.112-4.84" transform="matrix(.38514 0 0 .38426 -10.435 -5.081)" fill="none" stroke-width=".284" stroke="#000"/><path d="M62.207 101.797l3.976-3.7 4.27 2.277-4.27 3.7zm0 0" transform="matrix(.38514 0 0 .38426 -10.435 -5.081)" fill-rule="evenodd" fill="#008f4c" stroke-width=".284" stroke="#000"/><path d="M63.343 101.512l1.988-1.708 2.282 1.139-2.282 1.708zm2.84 2.562l-.852-1.423m-3.124-.854l1.136-.285m4.27-.569l2.84-.57m-5.122-.569l.852-1.707m77.346-.854l-5.406 2.846-.568-.285 5.69-2.561zm0 0" transform="matrix(.38514 0 0 .38426 -10.435 -5.081)" fill="none" stroke-width=".284" stroke="#000"/><path d="M143.529 104.928l-5.406-4.839-.568-.285 5.69 4.84zm0 0l5.406-2.846-5.122-4.84" transform="matrix(.38514 0 0 .38426 -10.435 -5.081)" fill="none" stroke-width=".284" stroke="#000"/><path d="M147.799 101.797l-3.986-3.7-4.26 2.277 4.26 3.7zm0 0" transform="matrix(.38514 0 0 .38426 -10.435 -5.081)" fill-rule="evenodd" fill="#008f4c" stroke-width=".284" stroke="#000"/><path d="M146.653 101.512l-1.988-1.708-2.272 1.139 2.272 1.708zm-2.84 2.562l.852-1.423m3.134-.854l-1.146-.285m-4.26-.569l-2.84-.57m5.112-.569l-.852-1.707" transform="matrix(.38514 0 0 .38426 -10.435 -5.081)" fill="none" stroke-width=".284" stroke="#000"/><path d="M109.978 95.545l1.42.854.852 1.128.284 1.424-.284 1.423-.852 1.423-2.84 1.138h-7.11l-1.42-.569-1.43-.57-.852-1.422-.284-1.423.284-1.424.852-1.128 1.43-.854 1.42-.285h7.11zm0 0" transform="matrix(.38514 0 0 .38426 -10.435 -5.081)" fill="#eac102" stroke-width=".284" stroke="#000"/><path d="M109.694 96.114l.852.56.852 1.138.284 1.139-.284 1.423-1.704 1.708-1.42.284h-6.542l-1.42-.284-.852-.854-.862-.854-.284-1.423.284-1.139.862-1.139.852-.559 1.42-.284h6.542zm0 0" transform="matrix(.38514 0 0 .38426 -10.435 -5.081)" fill="#ed1c24" stroke-width=".284" stroke="#000"/><path d="M49.408 93.553l-.852 1.707.568.285.568-1.708zm111.18 0l-.284.284.568 1.708.568-.285zM55.098 54.882l1.136.285.851.57.852.853 1.136 2.267.578 1.993 2.556-.854h1.704l1.42.284-.284 1.423v.854l-.284 1.424-.284 1.707 1.136.285.852.57.284.284.578.285-2.282 1.413-2.272 1.138-1.42 1.139-.568.854-.284.854 4.26-.57 1.136-1.423 1.136-1.708 1.43-1.138 1.136-.56h1.136v2.268l-.568.853-.568.57-1.136.854-.568.854-.284 1.138h8.53l.852.285.284.284-1.136.57-.568.569-1.146.854-.568.844-1.136.569-.852.285-.852-.57-.568-.559-.852-.284-.852.284.568.56 1.136.284 2.84 1.708.568 1.138v1.139l-2.272.285-1.704-.285-2.272-1.139 1.988 1.993 1.136 1.708.852 1.423.568.854.568.844h-.568l-3.124-.285-2.282-.56-2.272-1.138-2.272-.854v1.139l-.568 1.128-1.704 2.277h-.284l-2.566-5.682-.567.569h-.568l-2.84-6.831-.852-.56-.568-.569v-.854l-.284-.854h1.42l-1.136-2.846-.284-1.992.852.284.284.285.284.57 1.136 3.415 1.42-4.554-2.556-7.96 1.42-.57v-1.423l.284-1.423V56.59l-.852-.57-1.136-.568 1.136-.57zm0 0" transform="matrix(.38514 0 0 .38426 -10.435 -5.081)" fill-rule="evenodd" fill="#eac102" stroke-width=".284" stroke="#000"/><path d="M54.814 55.167l2.271 1.139 1.136 1.982.568 2.277 2.85-.57h1.42l1.42.285-.568 1.708v2.847l-.852 1.423h1.42l1.136.569.568.56-1.136.853-1.42.854-2.272.854-1.42 1.138-.567.854-.295 1.139 1.998-.854 1.136-.57.852-.569.568-.569.568-1.138 1.136-1.139 2.282-.854 2.556-.274v1.413l-.284 1.138-.284.854-.568.57-1.42.853-.578.57-.568 1.138 1.998-.57 1.136-.568 1.136-.854 1.136-.285h1.136l1.42.854 2.566 1.992-1.136.285-.862.854-1.136 1.139-1.136.843-1.136.57-.852-.57-.852-.284h-.852l-1.136.284 1.42.57 1.704.853 1.42.854.568.854.284 1.139-1.42.285h-1.42l-2.84-.854-2.566-.854-2.84-.57 1.704.57 1.42.569 2.282.854 1.988 1.992.568.854.284 1.139.568.854 1.136.844-1.988-.285h-2.272l-2.566-.56-1.42-.569-1.704-.853-.284.853-.852.844-.852 1.139-.568 1.138-.862-1.707-1.136-1.698-.852-1.993v-2.846l-.283.57V83.6l-.284.285h-.568l-.852-.854-.568-1.138-.284-1.708V79.9h-.284l-.284.285-1.42-1.424-1.146-1.138V75.64l.294-.854.284-.57.568.854.852.285-.568-1.423-.852-1.139v-.569l-.284-.854.284-1.992.568 1.138.284 1.423.568.854 1.136.854-.284-1.423-.284-.854-1.136-.854-.568-1.138v-.854l.568-1.139v-5.398l.284-.57h.284l.568.285V59.71l.284-1.992-.284-1.413-.284-.57-.852-.284 1.42-.285zm0 0" transform="matrix(.38514 0 0 .38426 -10.435 -5.081)" fill-rule="evenodd" fill="#eac102" stroke-width=".284" stroke="#000"/><path d="M55.666 73.079l-.284-3.131-.284-2.562.284-2.267v-1.992l.284-3.416v-1.423l-.568-1.698m6.257 7.39l-2.282 2.278-1.42 2.267-.852 2.277-.283 2.277m3.702 3.131l3.123-.285 2.84-.569 2.566-.854 3.408-.285m-12.222.854l2.272-.854 1.704-.853 1.136-1.424.852-1.138m-5.679 6.252l4.543.569 1.704.57 1.146.853m-8.823.569l1.145 1.139 1.136.854 1.988 1.138 1.704.57 1.988.854m-8.53-4.84v1.993l.568 2.847.579 1.138m-3.702-6.262l-.568 1.708m-.568-3.416l-.852.285-.568-.285h-1.42m2.84-1.982l-.852-.57-.852-.853m2.272-.285l-.568-3.985-.852-2.277-.852-2.551" transform="matrix(.38514 0 0 .38426 -10.435 -5.081)" fill="none" stroke-width=".076" stroke="#000"/><path d="M56.801 79.615h1.136l1.136-.284.862-.854.568-1.139v-1.413l-.568-1.423-.862-.854-1.136-.854h-1.136l-1.135.285-.852.854-.568 1.423v1.139l.568 1.413.852 1.138zm0 0" transform="matrix(.38514 0 0 .38426 -10.435 -5.081)" fill-rule="evenodd" fill="#eac102" stroke-width=".284" stroke="#000"/><path d="M56.518 79.615l1.135.285 1.136-.285.862-.853.568-1.424V76.21l-.568-1.423-.862-1.139-1.136-.57h-1.135l-1.136.286-.852.853-.568 1.139.284 1.423.284 1.129.852 1.138zm0 0" transform="matrix(.38514 0 0 .38426 -10.435 -5.081)" fill-rule="evenodd" fill="#eac102" stroke-width=".284" stroke="#000"/><path d="M56.518 79.33l1.135.285.852-.569.863-.57.283-1.138V76.21l-.283-1.139-.863-.854-.852-.569-1.135-.284-1.136.284-.568.854-.284 1.139v1.138l.284 1.129.852.853zm0 0" transform="matrix(.38514 0 0 .38426 -10.435 -5.081)" fill-rule="evenodd" fill="#e3e4e5" stroke-width=".284" stroke="#000"/><path d="M154.898 54.882l-1.136.285-.851.57-.852.853-1.136 2.267-.568 1.993-2.556-.854h-1.714l-1.42.284.284 1.423v.854l.284 1.424.284 1.707-1.136.285-.852.57-.284.284-.568.285 2.272 1.413 2.272 1.138 1.43 1.139.568.854.284.854-4.27-.57-1.136-1.423-1.136-1.708-1.42-1.138-1.136-.56h-1.146v2.268l.578.853.568.57 1.136.854.568.854.284 1.138h-8.53l-.852.285-.284.284 1.136.57.568.569 1.136.854.568.844 1.136.569.852.285.852-.57.578-.559.852-.284.852.284-.568.56-1.136.284-1.43.854-1.42.854-.568 1.138v1.139l2.272.285 1.714-.285 2.272-1.139-1.136 1.139-1.136.854-.862 1.708-.852 1.423-.568.854-.568.844h.568l3.134-.285 2.272-.56 2.272-1.138 2.282-.854v1.139l.568 1.128 1.704 2.277h.284l2.556-5.682.567.569h.568l2.85-6.831.852-.56.568-.569v-.854l.284-.854h-1.42l1.136-2.846.284-1.992-.852.284-.284.285-.284.57-1.136 3.415-1.43-4.554 2.566-7.96-1.43-.57v-1.423l-.284-1.423-.284-.844.284-.569.862-.57 1.136-.568-1.136-.57zm0 0" transform="matrix(.38514 0 0 .38426 -10.435 -5.081)" fill-rule="evenodd" fill="#eac102" stroke-width=".284" stroke="#000"/><path d="M155.182 55.167l-2.271 1.139-1.136 1.982-.568 2.277-2.84-.57h-1.43l-1.42.285.568 1.708v2.847l.852 1.423h-1.42l-1.136.569-.568.56 1.136.853 1.42.854 2.282.854 1.42 1.138.568.854.284 1.139-1.988-.854-1.136-.57-.862-.569-.568-.569-.568-1.138-1.136-1.139-2.272-.854-2.556-.274v1.413l.284 1.138.284.854.568.57 1.42.853.568.57.568 1.138-1.988-.57-1.136-.568-1.146-.854-1.136-.285h-1.136l-1.42.854-2.84 1.992 1.42.285 1.988 1.993 1.136.843 1.136.57.852-.57.862-.284h.852l1.136.284-1.42.57-1.714.853-1.42.854-.568.854-.284 1.139 1.42.285h1.43l2.84-.854 2.556-.854 2.85-.57-1.714.57-1.42.569-2.272.854-1.988 1.992-.568.854-.284 1.139-.578.854-1.136.844 1.998-.285h2.272l2.556-.56 1.42-.569 1.714-.853.284.853.852.844.852 1.139.568 1.138.852-1.707 1.136-1.698.851-1.993v-2.846l.284.57V83.6l.284.285h.568l.852-.854.568-1.138.294-1.708V79.9h.284l.284.285V79.9l.568-.285 1.988-1.992V75.64l-.284-.854-.284-.57-.568.854-.852.285.568-1.423.852-1.708v-2.846l-.568 1.138-.284 1.423-.568.854-1.136.854.284-1.423.284-.854 1.136-.854.568-1.138v-.854l-.568-1.139v-5.398l-.284-.57h-.284l-.568.285V59.71l-.284-1.992.284-1.413.284-.57.852-.284-1.42-.285zm0 0" transform="matrix(.38514 0 0 .38426 -10.435 -5.081)" fill-rule="evenodd" fill="#eac102" stroke-width=".284" stroke="#000"/><path d="M154.33 73.079l.284-3.131.284-2.562-.284-2.267v-1.992l-.284-3.416v-1.423l.568-1.698m-6.248 7.39l2.273 2.278 1.42 2.267.851 2.277.284 2.277m-3.691 3.131l-3.134-.285-2.84-.569-2.556-.854-3.418-.285m12.231.854l-2.271-.854-1.714-.853-1.136-1.424-.852-1.138m5.69 6.252l-2.282.284-2.272.285-1.704.57-1.136.853m8.814.569l-1.136 1.139-1.136.854-1.998 1.138-1.704.57-1.988.854m8.53-4.84v1.993l-.568 2.847-.568 1.138m3.691-6.262l.568 1.708m.568-3.416l.862.285.568-.285h1.42m-2.85-1.982l.862-.57.852-.853m-2.282-.285l.568-3.985.578-2.277 1.136-2.551" transform="matrix(.38514 0 0 .38426 -10.435 -5.081)" fill="none" stroke-width=".076" stroke="#000"/><path d="M153.194 79.615h-1.135l-1.136-.284-.852-.854-.568-1.139v-1.413l.568-1.423.852-.854 1.136-.854h1.135l1.136.285.852.854.568 1.423v1.139l-.568 1.413-.852 1.138zm0 0" transform="matrix(.38514 0 0 .38426 -10.435 -5.081)" fill-rule="evenodd" fill="#eac102" stroke-width=".284" stroke="#000"/><path d="M153.478 79.615l-1.135.285-1.136-.285-.852-.853-.568-1.424V76.21l.568-1.423.852-1.139 1.136-.57h1.135l1.136.286.852.853.578 1.139-.294 1.423-.284 1.129-.852 1.138zm0 0" transform="matrix(.38514 0 0 .38426 -10.435 -5.081)" fill-rule="evenodd" fill="#eac102" stroke-width=".284" stroke="#000"/><path d="M153.478 79.33l-1.135.285-1.704-1.138-.284-1.139V76.21l.284-1.139.852-.854.852-.569 1.135-.284.852.284.852.854.284 1.139v1.138l-.284 1.129-.852.853zm0 0" transform="matrix(.38514 0 0 .38426 -10.435 -5.081)" fill-rule="evenodd" fill="#e3e4e5" stroke-width=".284" stroke="#000"/><path d="M80.119 79.33h1.136l1.42-.284m47.486.284h-1.42l-1.42-.284m35.539 4.839l-1.136-.285-1.136-.854M47.136 83.885l1.136-.285 1.136-.854" transform="matrix(.38514 0 0 .38426 -10.435 -5.081)" fill="none" stroke-width=".076" stroke="#000"/><path d="M51.122 109.757l-1.146-.285-1.136-1.139-.568-1.138-.284-1.413.284-1.139.852-1.138.852-.57 2.566 6.822zm0 0" transform="matrix(.38514 0 0 .38426 -10.435 -5.081)" fill="#ed1c24" stroke-width=".284" stroke="#000"/><path d="M51.974 110.326l.852-.285-1.136-4.26-.568-1.992-.862-1.707-.852.284zm0 0" transform="matrix(.38514 0 0 .38426 -10.435 -5.081)" fill="#eac102" stroke-width=".284" stroke="#000"/><path d="M56.234 100.374l.851.854.852 4.27-.284.843-.568.57v.284l-1.42.285-.567-2.267-1.136-3.416-.568-2.277 1.704-.285.568.285zm0 0" transform="matrix(.38514 0 0 .38426 -10.435 -5.081)" fill-rule="evenodd" fill="#eac102" stroke-width=".284" stroke="#000"/><path d="M54.246 106.626l.852.569.568.285.568-.57.284-.843v-1.424l-.284-1.423-1.136-2.846-.852-.57-.852-.284-.284.57-.284.853v1.423l.284 1.423.568 1.708zm0 0" transform="matrix(.38514 0 0 .38426 -10.435 -5.081)" fill-rule="evenodd" fill="#eac102" stroke-width=".284" stroke="#000"/><path d="M52.258 101.797l-.284 1.138.568 2.278.852.854.852.843 1.136.285.568-.57.284-1.128-.284-2.277-.568-1.423-.568-.854-.568-.57-.852-.284-.852.854zm0 0" transform="matrix(.38514 0 0 .38426 -10.435 -5.081)" fill-rule="evenodd" fill="#e3e4e5" stroke-width=".284" stroke="#000"/><path d="M158.884 109.757l1.136-.285 1.136-1.139.568-1.138.284-1.413-.284-1.139-.852-1.138-.852-.57h-.284l-2.272 6.822zm0 0" transform="matrix(.38514 0 0 .38426 -10.435 -5.081)" fill="#ed1c24" stroke-width=".284" stroke="#000"/><path d="M158.032 110.326l-.852-.285 1.136-4.26.568-1.992.852-1.707.852.284zm0 0" transform="matrix(.38514 0 0 .38426 -10.435 -5.081)" fill="#eac102" stroke-width=".284" stroke="#000"/><path d="M153.762 100.374l-.851.854-.852 4.27.284.843.568.57v.284l1.42.285.567-2.267.568-1.708.578-1.708.568-2.277-1.714-.285-.568.285zm0 0" transform="matrix(.38514 0 0 .38426 -10.435 -5.081)" fill-rule="evenodd" fill="#eac102" stroke-width=".284" stroke="#000"/><path d="M155.75 106.626l-.852.569-.568.285-.568-.57-.284-.843v-1.424l.284-1.423 1.136-2.846.852-.57.578-.284.568.57.284.853v1.423l-.284 1.423-.568 1.708zm0 0" transform="matrix(.38514 0 0 .38426 -10.435 -5.081)" fill-rule="evenodd" fill="#eac102" stroke-width=".284" stroke="#000"/><path d="M157.748 101.797l.284 1.138-.568 2.278-.852.854-.862.843-1.42.285-.284-.57-.284-1.128.284-2.277.568-1.423.568-.854.568-.57.862-.284.852.854zm0 0" transform="matrix(.38514 0 0 .38426 -10.435 -5.081)" fill-rule="evenodd" fill="#e3e4e5" stroke-width=".284" stroke="#000"/><path d="M57.085 111.75l1.704-.57 1.43-.285 1.704-.57 2.272-.284 2.556-.569 2.85-.57 3.408-.284 3.986-.57 4.544-.284 4.838-.284 5.69-.285 6.247-.285h13.368l6.258.285 5.69.285 4.827.284 4.554.285 3.976.57 3.418.284 2.84.569 2.556.57 2.282.284 1.704.57 1.42.284 1.704.57.283.284-.283.284-.568.285-2.272.57-1.704.569-1.998.284-2.272.57-3.124.284-3.418.57-3.976.569-4.27.274-5.112.295-5.69.274h-6.541l-7.11.285-6.826-.285H91.5l-5.69-.274-5.122-.295-4.544-.274-3.986-.57-3.408-.569-2.85-.284-2.272-.57-1.988-.284-1.704-.57-1.43-.284-.852-.285-1.135-.57h.283zm0 0" transform="matrix(.38514 0 0 .38426 -10.435 -5.081)" fill-rule="evenodd" fill="#ed1c24" stroke-width=".284" stroke="#000"/><path d="M92.634 117.716v-11.65" transform="matrix(.38514 0 0 .38426 -10.435 -5.081)" fill="none" stroke-width=".076" stroke="#000"/><path d="M90.352 117.716v-11.65m-1.987 11.65v-11.65m-1.988 11.65v-11.65" transform="matrix(.38514 0 0 .38426 -10.435 -5.081)" fill="none" stroke-width=".284" stroke="#000"/><path d="M84.389 117.716v-11.65m-3.419 11.081v-10.521m1.705 10.806V106.34m-5.112 10.522v-9.952m1.704 10.237v-10.521m-5.974 9.667v-8.529m1.42 8.529v-9.098m1.43 9.393v-9.393" transform="matrix(.38514 0 0 .38426 -10.435 -5.081)" fill="none" stroke-width=".569" stroke="#000"/><path d="M71.873 116.019v-8.255m-1.42 7.96v-7.675m-1.703 7.401v-7.117m-3.135 6.547v-5.693m1.715 5.978v-6.547m-3.419 5.692v-4.838" transform="matrix(.38514 0 0 .38426 -10.435 -5.081)" fill="none" stroke-width=".853" stroke="#000"/><path d="M62.491 114.026v-4.27m-1.42 3.701v-3.416m-1.703 3.131v-2.561" transform="matrix(.38514 0 0 .38426 -10.435 -5.081)" fill="none" stroke-width="1.137" stroke="#000"/><path d="M57.653 112.603v-1.139" transform="matrix(.38514 0 0 .38426 -10.435 -5.081)" fill="none" stroke-width="1.422" stroke="#000"/><path d="M101.448 117.147v-10.521m-3.702 11.09v-11.375m-2.84 11.375v-11.65m22.466 11.65v-11.65" transform="matrix(.38514 0 0 .38426 -10.435 -5.081)" fill="none" stroke-width=".076" stroke="#000"/><path d="M119.644 117.716v-11.65m1.987 11.65v-11.65m1.999 11.65v-11.65" transform="matrix(.38514 0 0 .38426 -10.435 -5.081)" fill="none" stroke-width=".284" stroke="#000"/><path d="M125.617 117.716v-11.65m3.408 11.081v-10.521m-1.704 10.806V106.34m5.122 10.522v-9.952m-1.713 10.237v-10.521m5.973 9.667v-8.529m-1.42 8.529v-9.098m-1.42 9.393v-9.393" transform="matrix(.38514 0 0 .38426 -10.435 -5.081)" fill="none" stroke-width=".569" stroke="#000"/><path d="M138.123 116.019v-8.255m1.43 7.96v-7.675m1.704 7.401v-7.117m3.123 6.547v-5.693m-1.703 5.978v-6.547m3.408 5.692v-4.838" transform="matrix(.38514 0 0 .38426 -10.435 -5.081)" fill="none" stroke-width=".853" stroke="#000"/><path d="M147.505 114.026v-4.27m1.43 3.701v-3.416m1.704 3.131v-2.561" transform="matrix(.38514 0 0 .38426 -10.435 -5.081)" fill="none" stroke-width="1.137" stroke="#000"/><path d="M152.343 112.603v-1.139" transform="matrix(.38514 0 0 .38426 -10.435 -5.081)" fill="none" stroke-width="1.422" stroke="#000"/><path d="M108.558 117.147v-10.521m3.692 11.09v-11.375m2.84 11.375v-11.65" transform="matrix(.38514 0 0 .38426 -10.435 -5.081)" fill="none" stroke-width=".076" stroke="#000"/><path d="M104.856 103.505l-10.802.284-11.095.285-11.086.854-10.802 1.708-2.85.559-2.555.854-2.272 1.423-.852.854-.568 1.138v1.14l.284.853 1.42 1.423 1.988.854 1.703.844 8.246 1.708 8.53 1.138 8.246.57 8.53.284 13.083.285 13.084-.285 13.073-.57 13.084-1.138 3.692-.854 3.702-.569 3.407-1.128 3.134-1.993.568-.854.284-.854v-.854l-.284-.853-1.42-1.424-1.998-.854-6.825-1.982-6.816-1.138-14.22-1.139-10.801-.57zm0 3.405h6.826l6.258.285 5.69.285 4.827.284 4.554.285 3.976.57 3.418.284 2.84.569 2.556.57 2.282.284 1.704.57 1.42.284 1.704.57.283.284-.283.284-.568.285-2.272.57-1.704.569-1.998.284-2.272.57-3.124.284-3.418.57-3.976.569-4.27.284-5.112.275-5.69.284h-6.541l-7.11.285-6.826-.285H91.5l-5.69-.284-5.122-.275-4.544-.284-3.986-.57-3.408-.569-2.85-.284-2.272-.57-1.988-.284-1.704-.57-1.146-.284-1.136-.285-.568-.285-.284-.284.284-.285 1.704-.57 1.43-.284 1.704-.57 2.272-.284 2.556-.569 2.85-.57 3.408-.284 3.986-.57 4.544-.284 4.838-.284 5.69-.285 6.247-.285zm0 0" transform="matrix(.38514 0 0 .38426 -10.435 -5.081)" fill-rule="evenodd" fill="#eac102" stroke-width=".284" stroke="#000"/><path d="M1.914 78.285l.11 2.188.437 2.183.547 2.074.77 2.079.874 1.964.985 1.97 1.207 1.745 1.312 1.75 1.535 1.64 1.532 1.528 1.754 1.313 1.75 1.199 1.972 1.094 1.973.984 1.969.656 2.191.657 1.973.328 2.078.215 1.972.109 2.082-.11 1.97-.214 1.972-.328 1.969-.547 1.972-.766 1.864-.766 1.75-.984 1.754-.98 1.64-1.204 1.535-1.421 1.422-1.418 1.317-1.532 1.203-1.636 1.312-1.97.988-2.073.875-2.188.657-2.183.437-2.297.332-2.293.11-2.293V39.063H1.914zm0 0" fill-rule="evenodd" fill="#0071bc"/><path d="M62.775 231.46h-.852l-3.134.285-2.84.284-3.975 1.139-1.998.56-2.272.568-2.556.57h-8.53l-1.42-.285.568 2.846 1.988 4.555.568.284h3.692l3.134-.284 2.556-.285 2.272-.57 1.998-.569 3.976-1.138 2.84-.57 3.133-.284 3.408.285 2.566.284 2.272.57 1.704.569 1.988.854 2.282.569 2.556.285 3.124.284 3.418-.284 2.556-.285 2.271-.57 1.714-.853 1.988-.57 2.272-.569 2.556-.284 3.134-.285 3.408.285 2.566.569 5.964 1.708 1.998.569 2.84.285 1.42.284h5.405l2.556-.569 1.988-.57 1.714-.569 1.988-.569 1.988-.854 2.556-.284h1.714l1.988-.285 3.692.285 2.85.284 1.988.57 1.988.853 1.987.57 1.998.569 2.272.285 3.124.284 3.418-.284h.852l1.704-3.985.852-3.416h-1.704l-.852.285H158.6l-2.272-.57-1.998-.569-1.987-.559-3.976-1.139-2.85-.284-3.692-.285h-1.988l-1.714.285-2.556.284-1.988.57-1.988.844-1.714.569-1.988.57-2.556.284h-6.825l-2.84-.57-1.998-.569-1.988-.559-3.976-1.139-2.566-.284-3.408-.285h-3.134l-2.556.285-2.272.57-1.988.853-1.714.56-2.271.568-2.556.57h-6.542l-2.556-.57-2.282-.569-1.988-.559-1.704-.854-2.272-.57-2.566-.284zm38.39 13.073h-2.283l-2.84.57-3.976 1.138-1.998.57-2.271.569-2.556.569-3.418.285-3.124-.285-2.556-.57-2.282-.569-5.964-1.707-2.85-.57H61.64l-3.134.285-2.84.285-3.975 1.138-1.998.57-2.272.569-2.556.569H43.16l-1.998.285v.284l.568.854.568 1.139.862 1.423 2.272 3.12h1.136l.852-.284 2.272-.57 1.998-.568 1.988-.57 1.988-.559 2.84-.57h6.541l2.85.286 1.988.569 1.988.559 1.988.854 2.282.57 2.556.284 3.124.284 3.418-.284 2.556-.285 2.271-.57 1.998-.853 1.988-.56 1.988-.568 2.84-.285h6.542l2.566.57 1.988.558 3.976 1.139 1.998.57 2.84.284 3.407.284h3.418l2.84-.569 1.988-.285 1.714-.853 1.988-.57 1.988-.559 2.556-.57h7.394l2.85.57 2.272.56 1.987.569 1.704.569 1.998.57h.852l.568.284 1.704-2.552 3.124-4.554-.568.285-3.124-.285-2.556-.285-1.998-.569-1.704-.854-1.987-.57-2.272-.568-2.85-.285-3.692-.285h-1.988l-1.714.285-2.556.285-1.988.569-1.988.854-1.714.569-1.988.57-2.84.284-1.42.285H122.2l-3.407-.285-2.84-.57-1.998-.569-5.964-1.707-2.566-.285-3.408-.285zm-38.39 13.084H61.64l-3.134.284-2.84.285-1.987.57-1.988.853-.568.285h-.294l2.282 2.836 2.556 2.846.284-.284h.851l1.704-.285 3.134-.285h3.408l2.85.57 3.976 1.138 1.988.854 2.282.57 2.556.569h6.542l2.556-.57 2.271-.569 1.998-.854 3.976-1.138 2.84-.57h3.134l3.408.285 2.566.285 1.988.569 1.988.854 1.988.57 1.998.568 2.84.57h6.825l2.84-.285 1.988-.854 1.714-.57 1.988-.853 1.988-.57 2.556-.569h7.394l2.85.57h.284l1.42-1.708 1.704-1.698 1.135-1.423.284-.57v-.284l-1.42-.285-1.135-.569-2.272-.57-2.85-.284-3.692-.284h-1.988l-1.714.284-2.556.285-1.988.57-1.988.853-1.714.854-1.988.57-2.84.284h-6.825l-2.84-.57-1.998-.569-1.988-.569-1.988-.854-1.988-.57-2.566-.284-3.408-.284h-3.134l-2.84.569-3.976 1.138-1.998.854-2.271.57-2.556.569H78.7l-2.556-.57-2.282-.569-1.988-.854-3.976-1.138-2.85-.57zm-.852 13.083h-.568l5.396 3.405 5.69 3.131 5.69 2.277 6.258 1.993 2.556-.57 2.271-.569 1.988-.854 1.998-.569 2.272-.57 2.556-.568h3.134l3.408.284 2.556.285 2.282.57 1.704.853 1.988.57 2.272.569 2.566.569h.852l6.257-1.993 5.964-2.277 5.974-3.13 5.406-3.406h-2.85l-1.42.284-2.84.285-1.988.854-1.998.559-1.704.854-1.988.57-2.556.284-3.702.285-3.407-.285-2.566-.57-2.272-.569-1.988-.569-1.704-.56-2.282-.568-2.556-.57-3.408-.284H98.03l-2.556.569-2.272.57-1.998.569-1.988.843-2.271.57-2.556.569-3.134.285-3.408-.285-2.556-.57-2.282-.569-1.988-.843-1.704-.57-2.282-.569-2.556-.57zm0 0" transform="matrix(.38514 0 0 .38426 -10.435 -5.081)" fill-rule="evenodd" fill="#e3e4e5" stroke-width=".284" stroke="#000"/><path d="M32.064 114.596v102.073l.284 5.693 1.136 5.683 1.42 5.408 1.998 5.398 2.272 5.113 2.556 4.839 3.134 4.829 3.408 4.554 3.986 3.985 3.976 3.975 4.553 3.7 4.544 3.13 5.122 2.837 5.122 2.277 5.112 1.993 5.69 1.423 5.122 1.128 5.395.57h10.528l5.112-.57 5.122-1.128 5.111-1.423 5.122-1.708 4.838-1.993 4.544-2.561 4.554-2.837 4.26-3.13 3.986-3.416 3.691-3.69 3.418-3.985 3.124-4.544 3.408-5.124 2.566-5.398 2.272-5.693 1.704-5.682 1.136-5.978.862-5.967.284-5.967v-97.814H32.064" transform="matrix(.38514 0 0 .38426 -10.435 -5.081)" fill="none" stroke-width=".853" stroke="#000"/><path d="M122.402 136.452l-12.465 9.017 4.788 14.618-12.425-9.068-12.424 9.068 4.777-14.618-12.455-9.017 15.376.03 4.726-14.628 4.726 14.628zm0 0" transform="matrix(.38514 0 0 .38426 -10.435 -5.081)" fill-rule="evenodd" fill="#e3e4e5" stroke-width=".353" stroke="#2a2a29"/><path d="M157.515 221.02l-2.546.65-2.302-.487-1.785-.63-1.927-1.14-.639-.375-.903-1.403-.77-.885-.264-1.016-.264-1.027-.395-1.525-1.035-1.91-.903-1.404-.77-.884-.64-.376.64.376 1.156.244 1.653.122 1.663.112 1.532-.387 1.014-.264 1.156.244 1.664.122 1.146.244 1.024-.264 1.917 1.138 1.42 1.271 1.542 1.779.649 2.552-.244 1.148-.629 1.79-1.267 1.412zm0 0" transform="matrix(.38514 0 0 .38426 -10.435 -5.081)" fill-rule="evenodd" fill="#e3e4e5" stroke-width=".526" stroke="#000"/><path d="M61.467 177.206l-3.844-2.267 1.897-3.202 3.844 2.267 2.779-3.975 3.073 1.383-2.647 4.493 4.483 2.653-1.897 3.202-4.483-2.653-5.68 9.617 5.761 3.405 3.033-5.123 2.698 2.023-3.033 5.123 5.64 2.897 5.679-9.606-5.122-3.03 1.897-3.212 5.121 3.04 5.305-8.977-30.894-18.694-5.304 8.966 3.976 2.785-1.897 3.202-3.976-2.775-6.187 9.739 5.63 2.897 3.164-4.615 2.566 1.515-3.033 5.133 5.771 3.406zm0 0" transform="matrix(.38514 0 0 .38426 -10.435 -5.081)" fill="#eac102" stroke-width=".526" stroke="#000"/><path d="M140.841 208.994l-1.136 1.921-10.76-5.926 1.51-2.562-76.534-46.112 2.029-2.693 76.402 45.603 1.511-2.572 10.386 6.577-1.511 2.562zm0 0" transform="matrix(.38514 0 0 .38426 -10.435 -5.081)" fill="#e3e4e5" stroke-width=".526" stroke="#000"/><path d="M46.74 151.64l.781.894 2.313 2.663 2.698 2.023 1.277.763 3.54-5.266-.132-.508-1.146-.244-3.59-1.25-2.941-.875-1.664-.122-.882.773zm37.06 23.634l1.278.763 2.79-3.975-1.289-.762zm0 0" transform="matrix(.38514 0 0 .38426 -10.435 -5.081)" fill="#e3e4e5" stroke-width=".526" stroke="#000"/><path d="M54.185 157.342l1.288.752 2.779-3.974-1.278-.763zm10.254 6.059l1.288.762 2.14-4.36-1.278-.753zm9.746 6.191l1.289.762 2.647-4.493-1.278-.752zm0 0" transform="matrix(.38514 0 0 .38426 -10.435 -5.081)" fill="#e3e4e5" stroke-width=".526" stroke="#000"/><path d="M138.306 192.8l-1.644 2.054-.628 1.789.02 2.175 1.034 1.901 2.05 1.647 1.794.63 1.4-.904.882-.773.254-1.149-.396-1.535-.77-.884-1.157-.244-1.146-.254-.507.132.507-.132.376-.64 1.4-.905.892-.763 3.184-.285 2.181-.01 1.785.63 1.795.62 1.278.763.64.376-1.015.265-1.775 1.545-.254 1.148.132.509.507-.132 1.532-.397 2.17-.01 1.796.63 1.673 2.287.142 2.674-.629 1.8-1.268 1.412-1.014.255-.375.64-.396-1.525-.902-1.403-.64-.376-2.17.02-.385.64-.76 1.282-.244 1.149.527 2.043 1.41 1.26.77.895 2.435 1.006 2.546-.66 1.917-1.037 1.643-2.054 1.51-2.562.498-2.297-.284-5.367-1.166-2.41-1.806-2.805-2.83-2.532-3.843-2.277-5.112-.854-2.688.143-2.17.01-2.921 1.3zm12.353 33.242l1.775-1.545.497-2.298.121-1.667-1.166-2.41-2.059-1.646-1.795-.63-1.39.904-.892.773-.243 1.149.385 1.525.903 1.402 1.156.244 1.014-.254.517-.132-.385.64-.375.641-1.025.264-1.4.895-2.677.152-2.677.143-1.796-.63-1.785-.62-1.288-.763-.507.132.507-.132.386-.64 1.906-1.037.244-1.15-.264-1.016-.507.132-1.532.387-2.17.02-1.278-.762-2.19-2.155-.143-2.674.761-1.291 1.268-1.413.882-.773.386-.64.131.518.254 1.017.913 1.393.639.386 2.17-.02.507-.133.761-1.28.112-1.657-.396-1.525-1.41-1.271-.902-1.403-2.435-1.006-2.545.66-1.775 1.546-1.785 1.545-1.511 2.562-.497 2.297.142 2.684.152 2.673 1.166 2.42 1.805 2.805 2.82 2.532 3.854 2.277 5.112.854 2.677-.143 2.17-.01 2.932-1.3zm0 0" transform="matrix(.38514 0 0 .38426 -10.435 -5.081)" fill-rule="evenodd" fill="#eac102" stroke-width=".526" stroke="#000"/></svg>